<?xml version="1.0" standalone="no"?>
<!DOCTYPE svg PUBLIC "-//W3C//DTD SVG 1.1//EN" "http://www.w3.org/Graphics/SVG/1.1/DTD/svg11.dtd" >
<svg xmlns="http://www.w3.org/2000/svg">
<metadata></metadata>
<defs>
<font id="benderregular" horiz-adv-x="1090" >
<font-face units-per-em="2048" ascent="1638" descent="-410" />
<missing-glyph horiz-adv-x="583" />
<glyph unicode=" "  horiz-adv-x="583" />
<glyph unicode="&#x09;" horiz-adv-x="583" />
<glyph unicode="&#xa0;" horiz-adv-x="583" />
<glyph unicode="!" horiz-adv-x="486" d="M177 243l-2 1119h137l-2 -1119h-133zM202 -19l-46 47v81l46 47h82l47 -47v-81l-47 -47h-82z" />
<glyph unicode="&#x22;" horiz-adv-x="534" d="M80 869l-22 493h137l-22 -493h-93zM362 869l-22 493h137l-22 -493h-93z" />
<glyph unicode="#" horiz-adv-x="1427" d="M247 0h-130l148 373h-265v127h312l145 362h-258v126h305l150 374h130l-148 -374h395l150 374h130l-147 -374h264v-126h-313l-144 -362h258v-127h-307l-148 -373h-130l148 373h-397zM587 862l-141 -362h393l145 362h-397z" />
<glyph unicode="$" horiz-adv-x="1058" d="M292 126h438l124 125v185l-28 50l-696 339l-52 109v230l198 198h191v136h127v-136h192l191 -64l-39 -117l-175 54h-434l-125 -124v-140l24 -49l693 -337l59 -112v-274l-198 -199h-190v-136h-127v136h-187l-196 66l41 119z" />
<glyph unicode="%" horiz-adv-x="1363" d="M119 54l1029 1333l96 -74l-1028 -1335zM901 564h245l159 -159v-245l-159 -160h-245l-160 160v245zM1093 438h-139l-87 -86v-140l87 -86h139l86 86v140zM218 1362h245l159 -159v-245l-159 -160h-245l-160 160v245zM410 1235h-139l-86 -85v-140l86 -86h139l86 86v140z" />
<glyph unicode="&#x26;" horiz-adv-x="1177" d="M1064 -24l-186 209l-185 -185h-435l-200 199v268l300 296l-167 186v215l200 198h397l200 -200v-185h-126v132l-127 126h-291l-127 -126v-111l565 -628l176 174l90 -89l-181 -180l191 -215zM312 126h330l152 152l-352 392l-257 -256v-161z" />
<glyph unicode="'" horiz-adv-x="252" d="M80 869l-22 493h137l-22 -493h-93z" />
<glyph unicode="(" horiz-adv-x="486" d="M204 1058v-1073l91 -145l191 -70l-42 -117l-228 82l-138 222v1129l138 221l228 82l42 -117l-191 -69z" />
<glyph unicode=")" horiz-adv-x="486" d="M282 -15v1073l-91 145l-191 69l43 117l228 -82l137 -221v-1129l-137 -222l-228 -82l-43 117l191 70z" />
<glyph unicode="*" horiz-adv-x="733" d="M303 1151v211h127v-211l179 106l66 -111l-181 -107l181 -107l-66 -111l-179 105v-210h-127v210l-179 -105l-66 111l181 107l-181 107l66 111z" />
<glyph unicode="+" horiz-adv-x="913" d="M393 1090h127v-357h356v-126h-356v-354h-127v354h-354v126h354v357z" />
<glyph unicode="," horiz-adv-x="291" d="M0 -351l107 468h146l-166 -468h-87z" />
<glyph unicode="-" horiz-adv-x="874" d="M39 607v126h798v-126h-798z" />
<glyph unicode="." horiz-adv-x="291" d="M105 -19l-47 47v81l47 47h82l47 -47v-81l-47 -47h-82z" />
<glyph unicode="/" horiz-adv-x="984" d="M0 39l882 1346l102 -64l-880 -1349z" />
<glyph unicode="0" horiz-adv-x="1174" d="M243 243l594 967l-28 25h-439l-127 -124v-868zM932 1119l-594 -967l28 -26h440l126 125v868zM860 1362l198 -198v-965l-200 -199h-543l-198 199v965l200 198h543z" />
<glyph unicode="1" horiz-adv-x="700" d="M661 0h-577v126h226v1059l-182 -181l-89 89l271 271h126v-1238h225v-126z" />
<glyph unicode="2" horiz-adv-x="1062" d="M249 1235l-171 -54l-39 119l200 62h547l198 -200v-353l-180 -180l-637 -417v-86h817v-126h-943v280l675 442l142 143v246l-123 124h-486z" />
<glyph unicode="3" horiz-adv-x="1040" d="M216 0l-197 66l41 119l170 -59h482l125 123v300l-123 123h-420v134l486 429h-739v127h922v-129l-494 -435h296l198 -199v-400l-200 -199h-547z" />
<glyph unicode="4" horiz-adv-x="1081" d="M921 459h141v-127h-141v-332h-127v332h-775v172l775 862h127v-907zM794 459v712l-640 -712h640z" />
<glyph unicode="5" horiz-adv-x="1086" d="M115 1362h895v-127h-769v-422h570l199 -198v-416l-201 -199h-515l-197 66l41 119l170 -59h447l129 127v307l-127 127h-642v675z" />
<glyph unicode="6" horiz-adv-x="1138" d="M117 200v962l198 200h549l190 -64l-42 -119l-173 56h-473l-123 -124v-305l65 20h552l200 -204v-423l-200 -199h-543zM808 700h-500l-65 -21v-426l127 -127h438l126 127v317z" />
<glyph unicode="7" horiz-adv-x="982" d="M484 340v-340h-126v371l459 780v84h-798v127h924v-243z" />
<glyph unicode="8" horiz-adv-x="1172" d="M930 522l-124 124h-436l-127 -126v-269l127 -125h432l128 127v269zM798 1235h-423l-122 -123v-223l118 -117h431l119 117v218zM856 0h-539l-200 199v375l136 137l-127 124v329l199 198h531l191 -198v-329l-126 -124l135 -137v-375z" />
<glyph unicode="9" horiz-adv-x="1138" d="M1021 1162v-962l-198 -200h-548l-191 65l42 118l173 -57h473l123 125v306l-65 -22h-552l-200 204v425l200 198h543zM331 661h499l65 22v426l-126 126h-438l-127 -126v-317z" />
<glyph unicode=":" horiz-adv-x="291" d="M105 -19l-47 47v81l47 47h82l47 -47v-81l-47 -47h-82zM105 735l-47 47v82l47 46h82l47 -46v-82l-47 -47h-82z" />
<glyph unicode=";" horiz-adv-x="303" d="M117 735l-47 47v82l47 46h82l46 -46v-82l-46 -47h-82zM0 -351l107 468h146l-166 -468h-87z" />
<glyph unicode="&#x3c;" horiz-adv-x="678" d="M39 467v90l537 460l83 -95l-476 -410l476 -411l-83 -95z" />
<glyph unicode="=" horiz-adv-x="874" d="M39 784v126h798v-126h-798zM39 432v127h798v-127h-798z" />
<glyph unicode="&#x3e;" horiz-adv-x="678" d="M640 557v-90l-536 -461l-85 95l477 411l-477 410l85 95z" />
<glyph unicode="?" horiz-adv-x="1058" d="M282 1235l-191 -190l-91 89l230 228h552l198 -198v-358l-418 -351v-212h-126v280l418 351v237l-124 124h-448zM457 -24l-47 48v81l47 47h82l46 -47v-81l-46 -48h-82z" />
<glyph unicode="@" horiz-adv-x="1710" d="M1574 1125v-835l-161 -160h-286l-32 98l-105 -105h-342l-162 159v214l162 160h420v140l-88 86h-260l-169 -59l-41 118l196 67h327l161 -160v-514l26 -78h140l88 86v728l-185 165h-816l-185 -165v-1000l185 -165h868v-126h-914l-265 236v1110l265 237h908zM936 249 l132 128v152h-368l-87 -85v-110l87 -85h236z" />
<glyph unicode="A" horiz-adv-x="1123" d="M301 412l-139 -431l-123 38l434 1343h179l434 -1343l-123 -38l-140 431h-522zM342 539h440l-220 681z" />
<glyph unicode="B" horiz-adv-x="1196" d="M963 720l136 -139v-381l-200 -200h-743v1362h741l161 -161v-386zM973 531l-123 125h-568v-530h568l123 123v282zM282 1235v-453h564l86 85v283l-86 85h-564z" />
<glyph unicode="C" horiz-adv-x="1125" d="M828 126l149 149l91 -90l-184 -185h-567l-200 200v962l200 200h543l200 -200v-219h-126v166l-126 126h-438l-127 -126v-856l127 -127h458z" />
<glyph unicode="D" horiz-adv-x="1217" d="M156 1362h745l200 -202v-958l-200 -202h-745v1362zM975 1107l-127 128h-566v-1109h566l127 129v852z" />
<glyph unicode="E" horiz-adv-x="1036" d="M156 0v1362h842v-127h-716v-451h635v-127h-635v-531h716v-126h-842z" />
<glyph unicode="F" horiz-adv-x="1017" d="M156 0v1362h842v-127h-716v-466h635v-127h-635v-642h-126z" />
<glyph unicode="G" horiz-adv-x="1177" d="M1060 1164v-221h-126v168l-123 124h-445l-123 -124v-860l123 -125h445l123 125v325h-327v126h453v-503l-198 -199h-547l-198 199v965l198 198h547z" />
<glyph unicode="H" horiz-adv-x="1254" d="M973 770v592h126v-1362h-126v644h-691v-644h-126v1362h126v-592h691z" />
<glyph unicode="I" horiz-adv-x="694" d="M636 0h-578v126h226v1109h-226v127h578v-127h-226v-1109h226v-126z" />
<glyph unicode="J" horiz-adv-x="1025" d="M228 0l-228 228l91 89l193 -191h352l127 127v982h-327v127h453v-1162l-200 -200h-461z" />
<glyph unicode="K" horiz-adv-x="1095" d="M611 796l484 -748l-105 -67l-468 721l-240 -251v-451h-126v1362h126v-727l710 746l92 -87z" />
<glyph unicode="L" horiz-adv-x="997" d="M156 0v1362h126v-1236h716v-126h-842z" />
<glyph unicode="M" horiz-adv-x="1617" d="M864 323h-109l-473 807v-1130h-126v1362h139l514 -878l514 878h140v-1362h-126v1130z" />
<glyph unicode="N" horiz-adv-x="1256" d="M960 0l-678 1142v-1142h-126v1362h141l678 -1143v1143h126v-1362h-141z" />
<glyph unicode="O" horiz-adv-x="1235" d="M336 1362h563l220 -200v-962l-220 -200h-563l-219 200v962zM992 1109l-140 126h-469l-140 -126v-856l140 -127h469l140 127v856z" />
<glyph unicode="P" horiz-adv-x="1177" d="M282 520v-520h-126v1362h743l200 -198v-446l-200 -198h-617zM845 1235h-563v-589h563l128 126v337z" />
<glyph unicode="Q" horiz-adv-x="1235" d="M555 0h-219l-219 200v962l219 200h563l220 -200v-962l-220 -200h-218v-269h-126v269zM681 126h171l140 127v856l-140 126h-469l-140 -126v-856l140 -127h172v117h126v-117z" />
<glyph unicode="R" horiz-adv-x="1177" d="M282 533v-533h-126v1362h743l200 -198v-432l-200 -199h-275l471 -470l-89 -92l-560 562h-164zM845 1235h-563v-576h563l128 127v323z" />
<glyph unicode="S" horiz-adv-x="1058" d="M763 1235h-434l-125 -124v-140l24 -49l693 -337l59 -112v-274l-198 -199h-504l-196 66l41 119l169 -59h438l124 125v185l-28 50l-696 339l-52 109v230l198 198h510l191 -64l-39 -117z" />
<glyph unicode="T" horiz-adv-x="982" d="M555 1235v-1235h-127v1235h-428v127h982v-127h-427z" />
<glyph unicode="U" horiz-adv-x="1216" d="M336 0l-200 199v1163h126v-1109l129 -127h434l129 127v1109h126v-1163l-200 -199h-544z" />
<glyph unicode="V" horiz-adv-x="1140" d="M656 0h-172l-445 1340l123 41l408 -1227l408 1227l123 -41z" />
<glyph unicode="W" horiz-adv-x="1766" d="M813 1321h141l316 -1102l334 1162l124 -35l-386 -1346h-143l-315 1097l-316 -1097h-144l-385 1346l124 35l333 -1162z" />
<glyph unicode="X" horiz-adv-x="1058" d="M146 1381l383 -583l384 583l106 -70l-414 -630l411 -631l-108 -69l-379 583l-379 -583l-107 69l410 631l-414 630z" />
<glyph unicode="Y" horiz-adv-x="1088" d="M607 0h-126v514l-462 801l113 66l412 -716l414 716l112 -66l-463 -803v-512z" />
<glyph unicode="Z" horiz-adv-x="1001" d="M206 126h748v-126h-915v121l757 1114h-748v127h915v-124z" />
<glyph unicode="[" horiz-adv-x="435" d="M436 -327h-358v1689h358v-127h-232v-1435h232v-127z" />
<glyph unicode="\" horiz-adv-x="984" d="M104 1385l880 -1346l-102 -67l-882 1349z" />
<glyph unicode="]" horiz-adv-x="435" d="M358 1362v-1689h-358v127h232v1435h-232v127h358z" />
<glyph unicode="^" horiz-adv-x="913" d="M412 1362h90l413 -560l-102 -74l-356 480l-356 -480l-101 74z" />
<glyph unicode="_" horiz-adv-x="867" d="M0 -126v126h867v-126h-867z" />
<glyph unicode="`" horiz-adv-x="388" d="M134 1362l274 -428h-109l-318 428h153z" />
<glyph unicode="a" horiz-adv-x="1071" d="M921 878v-644l54 -221l-121 -28l-31 124l-109 -109h-456l-161 160v282l161 159h536v224l-88 85h-374l-169 -58l-40 119l196 66h440zM663 126l131 130v219h-482l-88 -85v-178l88 -86h351z" />
<glyph unicode="b" d="M280 975l62 62h473l160 -159v-718l-160 -160h-501l-160 160v1006l-57 171l119 39l64 -197v-204zM280 794v-584l84 -84h401l83 84v616l-83 84h-368z" />
<glyph unicode="c" horiz-adv-x="999" d="M732 126l170 54l39 -117l-198 -63h-467l-159 162v714l159 161h502l160 -161v-215h-127v167l-83 82h-401l-84 -82v-620l84 -82h405z" />
<glyph unicode="d" horiz-adv-x="1088" d="M811 794l-117 116h-367l-84 -84v-616l84 -84h354l130 130v538zM811 975v387h127v-1128l54 -221l-120 -28l-31 124l-109 -109h-457l-158 158v722l158 157h474z" />
<glyph unicode="e" horiz-adv-x="1019" d="M732 126l170 54l39 -117l-198 -63h-467l-159 160v718l159 159h502l160 -159v-286l-160 -158h-535v-222l86 -86h403zM329 910l-86 -85v-265h483l85 86v179l-85 85h-397z" />
<glyph unicode="f" horiz-adv-x="724" d="M204 782h-165v126h165v295l162 159h258l199 -66l-43 -119l-169 58h-197l-83 -84v-243h328v-126h-328v-782h-127v782z" />
<glyph unicode="g" horiz-adv-x="1007" d="M301 243l-39 37l-30 -31v-89l44 -45h541l117 -117v-208l-117 -117h-574l-146 142l86 90l109 -105h471l45 44v100l-45 45h-544l-115 116v198l67 68l-67 69v438l158 159h438l221 55l28 -121l-123 -31l108 -107v-430l-160 -160h-473zM677 910h-362l-85 -85v-333l122 -122 h370l86 85v325z" />
<glyph unicode="h" horiz-adv-x="1088" d="M280 794v-794h-126v1166l-57 171l119 39l64 -197v-204l62 62h471l160 -159v-878h-127v826l-83 84h-366z" />
<glyph unicode="i" horiz-adv-x="419" d="M154 843l-57 171l119 39l64 -197v-856h-126v843zM175 1177l-47 47v81l47 47h81l47 -47v-81l-47 -47h-81z" />
<glyph unicode="j" horiz-adv-x="416" d="M177 -247l-272 -100l-41 119l225 78l61 87v906l-57 171l119 39l64 -197v-945zM171 1177l-47 47v81l47 47h82l46 -47v-81l-46 -47h-82z" />
<glyph unicode="k" horiz-adv-x="958" d="M280 1179v-640l585 517l84 -93l-405 -358l416 -549l-102 -75l-409 541l-169 -149v-373h-126v1166l-57 171l119 39z" />
<glyph unicode="l" horiz-adv-x="396" d="M280 1179v-1179h-126v1166l-57 171l119 39z" />
<glyph unicode="m" horiz-adv-x="1615" d="M152 0v804l-55 219l121 30l31 -125l109 109h374l94 -96l96 96h418l160 -161v-876h-126v823l-88 87h-311l-86 -85v-825h-126v823l-88 87h-267l-130 -130v-780h-126z" />
<glyph unicode="n" d="M152 0v804l-55 219l121 30l31 -125l109 109h457l160 -159v-878h-127v823l-87 87h-353l-130 -130v-780h-126z" />
<glyph unicode="o" horiz-adv-x="1064" d="M947 162l-159 -162h-512l-159 162v714l159 161h512l159 -161v-714zM329 126h406l86 88v609l-86 87h-406l-86 -87v-609z" />
<glyph unicode="p" horiz-adv-x="1088" d="M278 243l117 -117h368l83 84v616l-83 84h-355l-130 -130v-537zM278 63v-390h-126v1131l-55 219l121 30l31 -125l109 109h457l158 -157v-722l-158 -158h-475z" />
<glyph unicode="q" horiz-adv-x="1071" d="M811 63l-62 -63h-473l-159 160v718l159 159h502l160 -159v-1006l57 -171l-119 -39l-65 196v205zM811 243v583l-83 84h-401l-84 -84v-616l84 -84h367z" />
<glyph unicode="r" horiz-adv-x="893" d="M652 910h-244l-130 -130v-780h-126v804l-55 219l121 30l31 -125l109 109h346l189 -185l-87 -91z" />
<glyph unicode="s" horiz-adv-x="927" d="M739 331l-21 42l-595 210l-60 117v178l158 159h453l195 -66l-41 -119l-169 58h-383l-87 -87v-91l21 -45l596 -210l59 -115v-202l-159 -160h-451l-197 63l39 120l174 -57h381l87 88v117z" />
<glyph unicode="t" horiz-adv-x="832" d="M224 865h-185v127h185v311h127v-311h330v-127h-330v-653l85 -86h182l176 54l39 -117l-198 -63h-252l-159 160v705z" />
<glyph unicode="u" d="M940 1037v-803l55 -221l-121 -28l-31 124l-110 -109h-457l-159 160v877h126v-823l88 -88h352l130 130v781h127z" />
<glyph unicode="v" horiz-adv-x="972" d="M551 0h-129l-403 1010l117 46l350 -881l351 881l117 -46z" />
<glyph unicode="w" horiz-adv-x="1415" d="M640 995h136l249 -779l249 840l122 -37l-303 -1019h-132l-253 789l-253 -789h-132l-304 1019l123 37l249 -840z" />
<glyph unicode="x" horiz-adv-x="878" d="M440 629l317 427l103 -76l-342 -462l340 -462l-103 -75l-315 426l-316 -426l-102 75l340 462l-343 462l104 76z" />
<glyph unicode="y" horiz-adv-x="958" d="M416 -327h-249v127h201l52 52l49 148h-35l-415 1008l121 48l376 -916l305 916l119 -39l-409 -1229z" />
<glyph unicode="z" horiz-adv-x="878" d="M674 910h-631v127h798v-127l-635 -784h631v-126h-798v124z" />
<glyph unicode="{" horiz-adv-x="620" d="M210 329l-171 150v85l171 150v403l134 212l248 60l28 -121l-200 -48l-84 -128v-438l-151 -132l151 -132v-438l84 -129l200 -49l-28 -121l-248 61l-134 212v403z" />
<glyph unicode="|" horiz-adv-x="438" d="M284 -327h-128v1689h128v-1689z" />
<glyph unicode="}" horiz-adv-x="620" d="M581 479l-171 -150v-403l-134 -212l-247 -61l-29 121l200 49l84 129v438l152 132l-152 132v438l-84 128l-200 48l29 121l247 -60l134 -212v-403l171 -150v-85z" />
<glyph unicode="~" horiz-adv-x="1213" d="M733 706l-200 -201h-266l-228 228l91 90l193 -190h158l200 200h266l228 -228l-91 -89l-193 190h-158z" />
<glyph unicode="&#xa2;" horiz-adv-x="999" d="M603 1037h175l160 -161v-215h-127v167l-83 82h-401l-84 -82v-620l84 -82h405l170 54l39 -117l-198 -63h-142v-136h-126v136h-199l-159 162v714l159 161h201v136h126v-136z" />
<glyph unicode="&#xa4;" horiz-adv-x="1125" d="M786 1235h-562v-486h562l129 127v233zM767 574l157 -434l134 -45l-41 -121l-198 67l-154 426h-441v-467h-127v467h-97v107h97v68h-97v107h97v613h744l200 -198v-343l-181 -179h-636v-68h543z" />
<glyph unicode="&#xa5;" horiz-adv-x="1088" d="M165 512v126h243l-389 677l113 66l412 -716l414 716l112 -66l-391 -677h243v-126h-315v-94h315v-126h-315v-292h-126v292h-316v126h316v94h-316z" />
<glyph unicode="&#xa6;" horiz-adv-x="438" d="M284 1362v-724h-128v724h128zM284 -327h-128v724h128v-724z" />
<glyph unicode="&#xa7;" horiz-adv-x="997" d="M214 461l24 -43l400 -182l146 159v181l-23 42l-403 182l-144 -158v-181zM87 434v257l152 163l-62 30l-60 113v206l159 159h448l197 -66l-41 -119l-169 58h-382l-86 -87v-127l26 -43l581 -262l60 -113v-256l-149 -164l60 -29l61 -113v-208l-160 -160h-447l-197 67l41 118 l169 -58h382l85 87v126l-25 45l-582 263z" />
<glyph unicode="&#xa9;" horiz-adv-x="1671" d="M1554 1123v-884l-264 -239h-909l-264 239v884l264 239h909zM1428 297v767l-190 171h-804l-191 -171v-767l191 -171h804zM961 408l171 55l39 -119l-198 -62h-321l-160 162v475l160 161h358l159 -161v-147h-126v95l-83 87h-258l-84 -87v-373l84 -86h259z" />
<glyph unicode="&#xab;" horiz-adv-x="1160" d="M1058 6l-589 506l589 505l84 -95l-477 -410l477 -411zM629 6l-590 506l590 505l83 -95l-476 -410l476 -411z" />
<glyph unicode="&#xac;" horiz-adv-x="797" d="M631 412v195h-592v126h720v-321h-128z" />
<glyph unicode="&#xad;" horiz-adv-x="874" d="M39 607v126h798v-126h-798z" />
<glyph unicode="&#xae;" horiz-adv-x="1671" d="M1074 874l-82 80h-346v-252h346q50 50 82 80v92zM1201 921v-186l-162 -159h-81l239 -240l-90 -91l-331 331h-130v-294h-126v798h519zM1554 1123v-884l-264 -239h-909l-264 239v884l264 239h909zM1428 297v767l-190 171h-804l-191 -171v-767l191 -171h804z" />
<glyph unicode="&#xb0;" horiz-adv-x="680" d="M218 1362h245l159 -159v-245l-159 -160h-245l-160 160v245zM410 1235h-139l-86 -85v-140l86 -86h139l86 86v140z" />
<glyph unicode="&#xb1;" horiz-adv-x="913" d="M393 1090h127v-318h356v-126h-356v-315h-127v315h-354v126h354v318zM58 136v117h798v-117h-798z" />
<glyph unicode="&#xb5;" d="M940 1037v-803l55 -221l-121 -28l-31 124l-110 -109h-457l-33 33v-360h-126v1364h126v-823l88 -88h352l130 130v781h127z" />
<glyph unicode="&#xb6;" horiz-adv-x="1013" d="M611 -327h-127v681h-226l-200 205v605l200 198h353v-1689zM858 -327h-126v1689h126v-1689z" />
<glyph unicode="&#xb7;" horiz-adv-x="583" d="M251 594l-47 46v82l47 47h81l47 -47v-82l-47 -46h-81z" />
<glyph unicode="&#xbb;" horiz-adv-x="1160" d="M693 512l-589 -506l-85 95l477 411l-477 410l85 95zM1123 512l-590 -506l-84 95l477 411l-477 410l84 95z" />
<glyph unicode="&#xc0;" horiz-adv-x="1123" d="M301 412l-139 -431l-123 38l434 1343h179l434 -1343l-123 -38l-140 431h-522zM342 539h440l-220 681zM401 1838l249 -388h-109l-294 388h154z" />
<glyph unicode="&#xc1;" horiz-adv-x="1123" d="M301 412l-139 -431l-123 38l434 1343h179l434 -1343l-123 -38l-140 431h-522zM342 539h440l-220 681zM473 1450l249 388h154l-295 -388h-108z" />
<glyph unicode="&#xc2;" horiz-adv-x="1123" d="M301 412l-139 -431l-123 38l434 1343h179l434 -1343l-123 -38l-140 431h-522zM342 539h440l-220 681zM260 1450l234 262v-145l-124 -117h-110zM753 1450l-124 117v145l233 -262h-109z" />
<glyph unicode="&#xc3;" horiz-adv-x="1123" d="M301 412l-139 -431l-123 38l434 1343h179l434 -1343l-123 -38l-140 431h-522zM342 539h440l-220 681zM652 1586l-148 -136h-118l-165 163l93 89l128 -126h21l148 136h119l163 -164l-91 -89l-128 127h-22z" />
<glyph unicode="&#xc4;" horiz-adv-x="1123" d="M301 412l-139 -431l-123 38l434 1343h179l434 -1343l-123 -38l-140 431h-522zM342 539h440l-220 681zM347 1494l-48 47v82l48 46h81l47 -46v-82l-47 -47h-81zM696 1494l-46 47v82l46 46h82l47 -46v-82l-47 -47h-82z" />
<glyph unicode="&#xc5;" horiz-adv-x="1123" d="M483 1644h157l121 -120v-158l-84 -84l409 -1263l-123 -38l-140 431h-522l-139 -431l-123 38l407 1262l-84 85v158zM342 539h440l-220 681zM598 1528h-73l-46 -47v-72l46 -47h73l46 47v72z" />
<glyph unicode="&#xc6;" horiz-adv-x="1669" d="M846 0v412h-490l-222 -431l-115 58l677 1323h934v-127h-657v-451h575v-127h-575v-531h657v-126h-784zM776 1235l-356 -696h426v696h-70z" />
<glyph unicode="&#xc7;" horiz-adv-x="1125" d="M505 -173v173h-188l-200 200v962l200 200h543l200 -200v-219h-126v166l-126 126h-438l-127 -126v-856l127 -127h458l149 149l91 -90l-184 -185h-251v-47h67l121 -120v-156l-121 -121h-223v127h171l46 46v52l-46 46h-143z" />
<glyph unicode="&#xc8;" horiz-adv-x="1036" d="M156 0v1362h842v-127h-716v-451h635v-127h-635v-531h716v-126h-842zM447 1858l249 -389h-109l-293 389h153z" />
<glyph unicode="&#xc9;" horiz-adv-x="1036" d="M156 0v1362h842v-127h-716v-451h635v-127h-635v-531h716v-126h-842zM518 1469l249 389h154l-295 -389h-108z" />
<glyph unicode="&#xca;" horiz-adv-x="1036" d="M156 0v1362h842v-127h-716v-451h635v-127h-635v-531h716v-126h-842zM280 1450l234 262v-145l-124 -117h-110zM772 1450l-124 117v145l234 -262h-110z" />
<glyph unicode="&#xcb;" horiz-adv-x="1036" d="M156 0v1362h842v-127h-716v-451h635v-127h-635v-531h716v-126h-842zM370 1533l-47 47v82l47 46h81l47 -46v-82l-47 -47h-81zM720 1533l-46 47v82l46 46h82l46 -46v-82l-46 -47h-82z" />
<glyph unicode="&#xcc;" horiz-adv-x="694" d="M636 0h-578v126h226v1109h-226v127h578v-127h-226v-1109h226v-126zM187 1858l249 -389h-109l-294 389h154z" />
<glyph unicode="&#xcd;" horiz-adv-x="694" d="M636 0h-578v126h226v1109h-226v127h578v-127h-226v-1109h226v-126zM276 1469l249 389h154l-293 -389h-110z" />
<glyph unicode="&#xce;" horiz-adv-x="694" d="M636 0h-578v126h226v1109h-226v127h578v-127h-226v-1109h226v-126zM47 1450l233 262v-145l-124 -117h-109zM539 1450l-125 117v145l234 -262h-109z" />
<glyph unicode="&#xcf;" horiz-adv-x="694" d="M636 0h-578v126h226v1109h-226v127h578v-127h-226v-1109h226v-126zM132 1508l-46 46v82l46 47h82l46 -47v-82l-46 -46h-82zM483 1508l-47 46v82l47 47h81l47 -47v-82l-47 -46h-81z" />
<glyph unicode="&#xd1;" horiz-adv-x="1256" d="M960 0l-678 1142v-1142h-126v1362h141l678 -1143v1143h126v-1362h-141zM726 1586l-148 -136h-119l-164 163l93 89l128 -126h21l148 136h119l163 -164l-91 -89l-129 127h-21z" />
<glyph unicode="&#xd2;" horiz-adv-x="1235" d="M336 1362h563l220 -200v-962l-220 -200h-563l-219 200v962zM992 1109l-140 126h-469l-140 -126v-856l140 -127h469l140 127v856zM475 1858l249 -389h-109l-294 389h154z" />
<glyph unicode="&#xd3;" horiz-adv-x="1235" d="M336 1362h563l220 -200v-962l-220 -200h-563l-219 200v962zM992 1109l-140 126h-469l-140 -126v-856l140 -127h469l140 127v856zM546 1469l250 389h153l-293 -389h-110z" />
<glyph unicode="&#xd4;" horiz-adv-x="1235" d="M899 1362l220 -200v-962l-220 -200h-563l-219 200v962l219 200h563zM852 1235h-469l-140 -126v-856l140 -127h469l140 127v856zM325 1450l234 262v-145l-125 -117h-109zM817 1450l-124 117v145l233 -262h-109z" />
<glyph unicode="&#xd5;" horiz-adv-x="1235" d="M336 1362h563l220 -200v-962l-220 -200h-563l-219 200v962zM992 1109l-140 126h-469l-140 -126v-856l140 -127h469l140 127v856zM726 1586l-148 -136h-119l-164 163l93 89l128 -126h21l148 136h119l163 -164l-91 -89l-129 127h-21z" />
<glyph unicode="&#xd6;" horiz-adv-x="1235" d="M336 1362h563l220 -200v-962l-220 -200h-563l-219 200v962zM992 1109l-140 126h-469l-140 -126v-856l140 -127h469l140 127v856zM403 1533l-47 47v82l47 46h81l47 -46v-82l-47 -47h-81zM753 1533l-47 47v82l47 46h82l47 -46v-82l-47 -47h-82z" />
<glyph unicode="&#xd7;" horiz-adv-x="756" d="M37 922l89 90l253 -253l252 253l89 -90l-251 -252l249 -250l-89 -89l-250 249l-251 -249l-89 89l251 250z" />
<glyph unicode="&#xd8;" horiz-adv-x="1235" d="M126 39l63 95l-72 66v962l219 200h563l59 -55l50 78l103 -64l-62 -95l70 -64v-962l-220 -200h-563l-56 50l-50 -78zM243 1109v-856l13 -14l631 964l-35 32h-469zM992 1109l-14 12l-629 -965l34 -30h469l140 127v856z" />
<glyph unicode="&#xd9;" horiz-adv-x="1216" d="M336 0l-200 199v1163h126v-1109l129 -127h434l129 127v1109h126v-1163l-200 -199h-544zM502 1819l249 -389h-109l-293 389h153z" />
<glyph unicode="&#xda;" horiz-adv-x="1216" d="M336 0l-200 199v1163h126v-1109l129 -127h434l129 127v1109h126v-1163l-200 -199h-544zM535 1430l249 389h154l-294 -389h-109z" />
<glyph unicode="&#xdb;" horiz-adv-x="1216" d="M336 0l-200 199v1163h126v-1109l129 -127h434l129 127v1109h126v-1163l-200 -199h-544zM308 1450l233 262v-145l-125 -117h-108zM800 1450l-125 117v145l233 -262h-108z" />
<glyph unicode="&#xdc;" horiz-adv-x="1216" d="M336 0l-200 199v1163h126v-1109l129 -127h434l129 127v1109h126v-1163l-200 -199h-544zM393 1494l-46 47v82l46 46h82l47 -46v-82l-47 -47h-82zM743 1494l-47 47v82l47 46h82l47 -46v-82l-47 -47h-82z" />
<glyph unicode="&#xdd;" horiz-adv-x="1088" d="M607 0h-126v514l-462 801l113 66l412 -716l414 716l112 -66l-463 -803v-512zM475 1430l249 389h154l-295 -389h-108z" />
<glyph unicode="&#xdf;" horiz-adv-x="1177" d="M282 1150v-1150h-126v1201l161 161h541l161 -161v-197l-252 -222v-91l21 -45l231 -82l61 -115v-289l-159 -160h-316l-197 63l39 120l173 -57h245l89 88v204l-22 43l-232 81l-60 117v178l253 221v92l-85 85h-440z" />
<glyph unicode="&#xe0;" horiz-adv-x="1071" d="M921 878v-644l54 -221l-121 -28l-31 124l-109 -109h-456l-161 160v282l161 159h536v224l-88 85h-374l-169 -58l-40 119l196 66h440zM663 126l131 130v219h-482l-88 -85v-178l88 -86h351zM383 1513l250 -388h-110l-293 388h153z" />
<glyph unicode="&#xe1;" horiz-adv-x="1071" d="M921 878v-644l54 -221l-121 -28l-31 124l-109 -109h-456l-161 160v282l161 159h536v224l-88 85h-374l-169 -58l-40 119l196 66h440zM663 126l131 130v219h-482l-88 -85v-178l88 -86h351zM461 1125l250 388h153l-294 -388h-109z" />
<glyph unicode="&#xe2;" horiz-adv-x="1071" d="M921 878v-644l54 -221l-121 -28l-31 124l-109 -109h-456l-161 160v282l161 159h536v224l-88 85h-374l-169 -58l-40 119l196 66h440zM663 126l131 130v219h-482l-88 -85v-178l88 -86h351zM241 1125l234 262h134l234 -262h-110l-192 180l-190 -180h-110z" />
<glyph unicode="&#xe3;" horiz-adv-x="1071" d="M921 878v-644l54 -221l-121 -28l-31 124l-109 -109h-456l-161 160v282l161 159h536v224l-88 85h-374l-169 -58l-40 119l196 66h440zM663 126l131 130v219h-482l-88 -85v-178l88 -86h351zM615 1261l-148 -136h-118l-164 163l91 90l129 -127h22l147 136h119l163 -163 l-91 -90l-129 127h-21z" />
<glyph unicode="&#xe4;" horiz-adv-x="1071" d="M921 878v-644l54 -221l-121 -28l-31 124l-109 -109h-456l-161 160v282l161 159h536v224l-88 85h-374l-169 -58l-40 119l196 66h440zM663 126l131 130v219h-482l-88 -85v-178l88 -86h351zM327 1177l-47 47v81l47 47h81l47 -47v-81l-47 -47h-81zM677 1177l-46 47v81l46 47 h82l47 -47v-81l-47 -47h-82z" />
<glyph unicode="&#xe5;" horiz-adv-x="1071" d="M921 878v-644l54 -221l-121 -28l-31 124l-109 -109h-456l-161 160v282l161 159h536v224l-88 85h-374l-169 -58l-40 119l196 66h440zM663 126l131 130v219h-482l-88 -85v-178l88 -86h351zM449 1524h158l121 -121v-158l-121 -120h-158l-120 120v158zM564 1407h-72l-46 -47 v-72l46 -46h72l47 46v72z" />
<glyph unicode="&#xe6;" horiz-adv-x="1617" d="M1331 126l171 54l39 -117l-199 -63h-427l-121 119l-119 -119h-417l-161 160v262l161 159h497v244l-88 85h-335l-169 -58l-40 119l196 66h401l97 -97l98 97h463l159 -159v-265l-159 -158h-496v-243l85 -86h364zM967 910l-85 -85v-244h443l86 86v158l-86 85h-358zM624 126 l131 130v199h-443l-88 -85v-158l88 -86h312z" />
<glyph unicode="&#xe7;" horiz-adv-x="999" d="M457 -173v173h-181l-159 162v714l159 161h502l160 -161v-215h-127v167l-83 82h-401l-84 -82v-620l84 -82h405l170 54l39 -117l-198 -63h-160v-47h69l120 -120v-156l-120 -121h-224v127h171l47 46v52l-47 46h-142z" />
<glyph unicode="&#xe8;" horiz-adv-x="1019" d="M732 126l170 54l39 -117l-198 -63h-467l-159 160v718l159 159h502l160 -159v-286l-160 -158h-535v-222l86 -86h403zM329 910l-86 -85v-265h483l85 86v179l-85 85h-397zM354 1513l249 -388h-109l-294 388h154z" />
<glyph unicode="&#xe9;" horiz-adv-x="1019" d="M732 126l170 54l39 -117l-198 -63h-467l-159 160v718l159 159h502l160 -159v-286l-160 -158h-535v-222l86 -86h403zM329 910l-86 -85v-265h483l85 86v179l-85 85h-397zM463 1125l249 388h153l-293 -388h-109z" />
<glyph unicode="&#xea;" horiz-adv-x="1019" d="M732 126l170 54l39 -117l-198 -63h-467l-159 160v718l159 159h502l160 -159v-286l-160 -158h-535v-222l86 -86h403zM329 910l-86 -85v-265h483l85 86v179l-85 85h-397zM226 1125l233 262h135l232 -262h-108l-193 180l-191 -180h-108z" />
<glyph unicode="&#xeb;" horiz-adv-x="1019" d="M732 126l170 54l39 -117l-198 -63h-467l-159 160v718l159 159h502l160 -159v-286l-160 -158h-535v-222l86 -86h403zM329 910l-86 -85v-265h483l85 86v179l-85 85h-397zM312 1177l-47 47v81l47 47h81l47 -47v-81l-47 -47h-81zM661 1177l-46 47v81l46 47h82l46 -47v-81 l-46 -47h-82z" />
<glyph unicode="&#xec;" horiz-adv-x="419" d="M154 843l-57 171l119 39l64 -197v-856h-126v843zM45 1513l249 -388h-109l-294 388h154z" />
<glyph unicode="&#xed;" horiz-adv-x="419" d="M154 843l-57 171l119 39l64 -197v-856h-126v843zM97 1125l250 388h153l-294 -388h-109z" />
<glyph unicode="&#xee;" horiz-adv-x="419" d="M154 843l-57 171l119 39l64 -197v-856h-126v843zM-84 1125l234 262h134l234 -262h-110l-192 180l-190 -180h-110z" />
<glyph unicode="&#xef;" horiz-adv-x="419" d="M15 1177l-46 47v81l46 47h82l47 -47v-81l-47 -47h-82zM334 1177l-46 47v81l46 47h82l47 -47v-81l-47 -47h-82zM154 843l-57 171l119 39l64 -197v-856h-126v843z" />
<glyph unicode="&#xf1;" d="M152 0v804l-55 219l121 30l31 -125l109 109h457l160 -159v-878h-127v823l-87 87h-353l-130 -130v-780h-126zM670 1261l-148 -136h-119l-164 163l92 90l128 -127h22l148 136h118l163 -163l-91 -90l-128 127h-21z" />
<glyph unicode="&#xf2;" horiz-adv-x="1064" d="M947 162l-159 -162h-512l-159 162v714l159 161h512l159 -161v-714zM329 126h406l86 88v609l-86 87h-406l-86 -87v-609zM351 1513l248 -388h-109l-293 388h154z" />
<glyph unicode="&#xf3;" horiz-adv-x="1064" d="M947 162l-159 -162h-512l-159 162v714l159 161h512l159 -161v-714zM329 126h406l86 88v609l-86 87h-406l-86 -87v-609zM479 1125l249 388h154l-295 -388h-108z" />
<glyph unicode="&#xf4;" horiz-adv-x="1064" d="M947 162l-159 -162h-512l-159 162v714l159 161h512l159 -161v-714zM329 126h406l86 88v609l-86 87h-406l-86 -87v-609zM241 1125l234 262h134l234 -262h-110l-192 180l-190 -180h-110z" />
<glyph unicode="&#xf5;" horiz-adv-x="1064" d="M947 162l-159 -162h-512l-159 162v714l159 161h512l159 -161v-714zM329 126h406l86 88v609l-86 87h-406l-86 -87v-609zM648 1261l-148 -136h-119l-163 163l92 90l128 -127h21l148 136h119l163 -163l-91 -90l-128 127h-22z" />
<glyph unicode="&#xf6;" horiz-adv-x="1064" d="M947 162l-159 -162h-512l-159 162v714l159 161h512l159 -161v-714zM329 126h406l86 88v609l-86 87h-406l-86 -87v-609zM315 1177l-46 47v81l46 47h82l47 -47v-81l-47 -47h-82zM665 1177l-47 47v81l47 47h82l47 -47v-81l-47 -47h-82z" />
<glyph unicode="&#xf7;" horiz-adv-x="913" d="M39 733h837v-126h-837v126zM414 312l-46 46v82l46 46h82l46 -46v-82l-46 -46h-82zM414 856l-46 46v82l46 47h82l46 -47v-82l-46 -46h-82z" />
<glyph unicode="&#xf8;" horiz-adv-x="1064" d="M97 54l55 70l-35 38v714l159 161h512l37 -39l44 58l98 -74l-57 -72l37 -34v-714l-159 -162h-512l-38 37l-43 -56zM329 126h406l86 88v580l-506 -656zM243 823v-580l504 654l-12 13h-406z" />
<glyph unicode="&#xf9;" d="M940 1037v-803l55 -221l-121 -28l-31 124l-110 -109h-457l-159 160v877h126v-823l88 -88h352l130 130v781h127zM383 1474l250 -388h-110l-293 388h153z" />
<glyph unicode="&#xfa;" d="M940 1037v-803l55 -221l-121 -28l-31 124l-110 -109h-457l-159 160v877h126v-823l88 -88h352l130 130v781h127zM473 1086l249 388h154l-295 -388h-108z" />
<glyph unicode="&#xfb;" d="M940 1037v-803l55 -221l-121 -28l-31 124l-110 -109h-457l-159 160v877h126v-823l88 -88h352l130 130v781h127zM228 1125l233 262h135l232 -262h-108l-193 180l-191 -180h-108z" />
<glyph unicode="&#xfc;" d="M940 1037v-803l55 -221l-121 -28l-31 124l-110 -109h-457l-159 160v877h126v-823l88 -88h352l130 130v781h127zM312 1138l-47 47v81l47 47h81l47 -47v-81l-47 -47h-81zM661 1138l-46 47v81l46 47h82l46 -47v-81l-46 -47h-82z" />
<glyph unicode="&#xfd;" horiz-adv-x="958" d="M416 -327h-249v127h201l52 52l49 148h-35l-415 1008l121 48l376 -916l305 916l119 -39l-409 -1229zM416 1086l249 388h154l-294 -388h-109z" />
<glyph unicode="&#xff;" horiz-adv-x="958" d="M416 -327h-249v127h201l52 52l49 148h-35l-415 1008l121 48l376 -916l305 916l119 -39l-409 -1229zM269 1138l-48 47v81l48 47h82l46 -47v-81l-46 -47h-82zM618 1138l-46 47v81l46 47h82l47 -47v-81l-47 -47h-82z" />
<glyph unicode="&#x100;" horiz-adv-x="1123" d="M301 412l-139 -431l-123 38l434 1343h179l434 -1343l-123 -38l-140 431h-522zM342 539h440l-220 681zM297 1489v126h529v-126h-529z" />
<glyph unicode="&#x101;" horiz-adv-x="1071" d="M921 878v-644l54 -221l-121 -28l-31 124l-109 -109h-456l-161 160v282l161 159h536v224l-88 85h-374l-169 -58l-40 119l196 66h440zM663 126l131 130v219h-482l-88 -85v-178l88 -86h351zM273 1164v126h529v-126h-529z" />
<glyph unicode="&#x102;" horiz-adv-x="1123" d="M301 412l-139 -431l-123 38l434 1343h179l434 -1343l-123 -38l-140 431h-522zM342 539h440l-220 681zM867 1619l-118 -117h-374l-119 117v173h127v-119l45 -45h268l45 45v119h126v-173z" />
<glyph unicode="&#x103;" horiz-adv-x="1071" d="M921 878v-644l54 -221l-121 -28l-31 124l-109 -109h-456l-161 160v282l161 159h536v224l-88 85h-374l-169 -58l-40 119l196 66h440zM663 126l131 130v219h-482l-88 -85v-178l88 -86h351zM833 1303l-119 -116h-352l-119 116v173h127v-118l44 -45h247l45 45v118h127v-173z " />
<glyph unicode="&#x104;" horiz-adv-x="1123" d="M788 -15l131 130l-96 297h-522l-139 -431l-123 38l434 1343h179l414 -1280l-151 -150v-86l46 -46h190v-127h-243l-120 121v191zM342 539h440l-220 681z" />
<glyph unicode="&#x105;" horiz-adv-x="1071" d="M921 878v-644l56 -224l-179 -140v-47l47 -41h204v-109h-243l-121 115v121l158 122l-20 78l-109 -109h-456l-161 160v282l161 159h536v224l-88 85h-374l-169 -58l-40 119l196 66h440zM663 126l131 130v219h-482l-88 -85v-178l88 -86h351z" />
<glyph unicode="&#x106;" horiz-adv-x="1125" d="M828 126l149 149l91 -90l-184 -185h-567l-200 200v962l200 200h543l200 -200v-219h-126v166l-126 126h-438l-127 -126v-856l127 -127h458zM520 1469l249 389h153l-293 -389h-109z" />
<glyph unicode="&#x107;" horiz-adv-x="999" d="M732 126l170 54l39 -117l-198 -63h-467l-159 162v714l159 161h502l160 -161v-215h-127v167l-83 82h-401l-84 -82v-620l84 -82h405zM463 1125l249 388h153l-293 -388h-109z" />
<glyph unicode="&#x10c;" horiz-adv-x="1125" d="M828 126l149 149l91 -90l-184 -185h-567l-200 200v962l200 200h543l200 -200v-219h-126v166l-126 126h-438l-127 -126v-856l127 -127h458zM523 1450l-233 262h109l191 -181l192 181h109l-234 -262h-134z" />
<glyph unicode="&#x10d;" horiz-adv-x="999" d="M732 126l170 54l39 -117l-198 -63h-467l-159 162v714l159 161h502l160 -161v-215h-127v167l-83 82h-401l-84 -82v-620l84 -82h405zM477 1125l-234 262h109l190 -181l193 181h110l-234 -262h-134z" />
<glyph unicode="&#x10e;" horiz-adv-x="1217" d="M156 1362h745l200 -202v-958l-200 -202h-745v1362zM975 1107l-127 128h-566v-1109h566l127 129v852zM523 1450l-233 262h109l191 -181l192 181h109l-234 -262h-134z" />
<glyph unicode="&#x10f;" horiz-adv-x="1221" d="M811 794l-117 116h-367l-84 -84v-616l84 -84h354l130 130v538zM811 975v387h127v-1128l54 -221l-120 -28l-31 124l-109 -109h-457l-158 158v722l158 157h474zM1008 895l107 467h146l-166 -467h-87z" />
<glyph unicode="&#x110;" horiz-adv-x="1217" d="M-10 745h166v617h745l200 -202v-958l-200 -202h-745v618h-166v127zM975 1107l-127 128h-566v-490h329v-127h-329v-492h566l127 129v852z" />
<glyph unicode="&#x111;" horiz-adv-x="1088" d="M483 1146h328v216h127v-216h165v-127h-165v-785l54 -221l-120 -28l-31 124l-109 -109h-457l-158 158v566l158 158h474l62 -63v200h-328v127zM811 638l-117 117h-367l-84 -83v-462l84 -84h354l130 130v382z" />
<glyph unicode="&#x112;" horiz-adv-x="1036" d="M156 0v1362h842v-127h-716v-451h635v-127h-635v-531h716v-126h-842zM319 1489v126h529v-126h-529z" />
<glyph unicode="&#x113;" horiz-adv-x="1019" d="M732 126l170 54l39 -117l-198 -63h-467l-159 160v718l159 159h502l160 -159v-286l-160 -158h-535v-222l86 -86h403zM329 910l-86 -85v-265h483l85 86v179l-85 85h-397zM273 1164v126h529v-126h-529z" />
<glyph unicode="&#x116;" horiz-adv-x="1036" d="M156 0v1362h842v-127h-716v-451h635v-127h-635v-531h716v-126h-842zM533 1533l-47 47v82l47 46h82l46 -46v-82l-46 -47h-82z" />
<glyph unicode="&#x117;" horiz-adv-x="1019" d="M732 126l170 54l39 -117l-198 -63h-467l-159 160v718l159 159h502l160 -159v-286l-160 -158h-535v-222l86 -86h403zM329 910l-86 -85v-265h483l85 86v179l-85 85h-397zM475 1177l-47 47v81l47 47h82l46 -47v-81l-46 -47h-82z" />
<glyph unicode="&#x118;" horiz-adv-x="1036" d="M156 0v1362h842v-127h-716v-451h635v-127h-635v-531h716v-126h-383v-154l46 -46h191v-127h-243l-121 121v206h-332z" />
<glyph unicode="&#x119;" horiz-adv-x="1019" d="M732 126l170 54l39 -117l-198 -63h-160v-154l48 -46h190v-127h-243l-121 121v206h-181l-159 160v718l159 159h502l160 -159v-286l-160 -158h-535v-222l86 -86h403zM329 910l-86 -85v-265h483l85 86v179l-85 85h-397z" />
<glyph unicode="&#x11a;" horiz-adv-x="1036" d="M156 0v1362h842v-127h-716v-451h635v-127h-635v-531h716v-126h-842zM523 1450l-233 262h109l191 -181l192 181h109l-234 -262h-134z" />
<glyph unicode="&#x11b;" horiz-adv-x="1019" d="M732 126l170 54l39 -117l-198 -63h-467l-159 160v718l159 159h502l160 -159v-286l-160 -158h-535v-222l86 -86h403zM329 910l-86 -85v-265h483l85 86v179l-85 85h-397zM477 1125l-234 262h109l190 -181l193 181h110l-234 -262h-134z" />
<glyph unicode="&#x11e;" horiz-adv-x="1177" d="M1060 1164v-221h-126v168l-123 124h-445l-123 -124v-860l123 -125h445l123 125v325h-327v126h453v-503l-198 -199h-547l-198 199v965l198 198h547zM887 1619l-118 -117h-374l-119 117v173h127v-119l44 -45h269l45 45v119h126v-173z" />
<glyph unicode="&#x11f;" horiz-adv-x="1007" d="M301 243l-39 37l-30 -31v-89l44 -45h541l117 -117v-208l-117 -117h-574l-146 142l86 90l109 -105h471l45 44v100l-45 45h-544l-115 116v198l67 68l-67 69v438l158 159h438l221 55l28 -121l-123 -31l108 -107v-430l-160 -160h-473zM677 910h-362l-85 -85v-333l122 -122 h370l86 85v325zM819 1303l-119 -116h-351l-119 116v173h126v-118l45 -45h247l45 45v118h126v-173z" />
<glyph unicode="&#x122;" horiz-adv-x="1177" d="M1060 1164v-221h-126v168l-123 124h-445l-123 -124v-860l123 -125h445l123 125v325h-327v126h453v-503l-198 -199h-547l-198 199v965l198 198h547zM432 -535l107 467h146l-165 -467h-88z" />
<glyph unicode="&#x123;" horiz-adv-x="1007" d="M301 243l-39 37l-30 -31v-89l44 -45h541l117 -117v-208l-117 -117h-574l-146 142l86 90l109 -105h471l45 44v100l-45 45h-544l-115 116v198l67 68l-67 69v438l158 159h438l221 55l28 -121l-123 -31l108 -107v-430l-160 -160h-473zM677 910h-362l-85 -85v-333l122 -122 h370l86 85v325zM691 1591l-108 -466h-145l165 466h88z" />
<glyph unicode="&#x12b;" horiz-adv-x="419" d="M154 843l-57 171l119 39l64 -197v-856h-126v843zM-54 1164v126h529v-126h-529z" />
<glyph unicode="&#x12e;" horiz-adv-x="694" d="M284 0h-226v126h226v1109h-226v127h578v-127h-226v-1109h226v-126h-226v-154l47 -46h191v-127h-243l-121 121v206z" />
<glyph unicode="&#x12f;" horiz-adv-x="419" d="M154 843l-57 171l119 39l64 -197v-846l-179 -140v-47l47 -41h204v-109h-243l-120 115v121l165 128v806zM175 1177l-47 47v81l47 47h81l47 -47v-81l-47 -47h-81z" />
<glyph unicode="&#x130;" horiz-adv-x="694" d="M636 0h-578v126h226v1109h-226v127h578v-127h-226v-1109h226v-126zM306 1508l-48 46v82l48 47h82l46 -47v-82l-46 -46h-82z" />
<glyph unicode="&#x131;" horiz-adv-x="419" d="M154 843l-57 171l119 39l64 -197v-856h-126v843z" />
<glyph unicode="&#x136;" horiz-adv-x="1095" d="M611 796l484 -748l-105 -67l-468 721l-240 -251v-451h-126v1362h126v-727l710 746l92 -87zM432 -535l107 467h146l-165 -467h-88z" />
<glyph unicode="&#x137;" horiz-adv-x="958" d="M280 1179v-640l585 517l84 -93l-405 -358l416 -549l-102 -75l-409 541l-169 -149v-373h-126v1166l-57 171l119 39zM351 -535l106 467h146l-165 -467h-87z" />
<glyph unicode="&#x139;" horiz-adv-x="997" d="M156 0v1362h126v-1236h716v-126h-842zM156 1450l249 388h154l-294 -388h-109z" />
<glyph unicode="&#x13a;" horiz-adv-x="396" d="M280 1179v-1179h-126v1166l-57 171l119 39zM97 1450l250 388h153l-294 -388h-109z" />
<glyph unicode="&#x13b;" horiz-adv-x="997" d="M156 0v1362h126v-1236h716v-126h-842zM416 -535l107 467h147l-166 -467h-88z" />
<glyph unicode="&#x13c;" horiz-adv-x="396" d="M280 1179v-1179h-126v1166l-57 171l119 39zM50 -535l108 467h145l-165 -467h-88z" />
<glyph unicode="&#x13d;" horiz-adv-x="997" d="M156 0v1362h126v-1236h716v-126h-842zM152 1430l-234 263h110l190 -182l192 182h110l-234 -263h-134z" />
<glyph unicode="&#x13e;" horiz-adv-x="563" d="M280 1179v-1179h-126v1166l-57 171l119 39zM351 895l106 467h146l-165 -467h-87z" />
<glyph unicode="&#x141;" horiz-adv-x="997" d="M525 956v-156l-243 -180v-494h716v-126h-842v529l-195 -141v158l195 141v675h126v-584z" />
<glyph unicode="&#x142;" horiz-adv-x="396" d="M525 906v-155l-245 -179v-572h-126v479l-193 -141v160l193 138v530l-57 171l119 39l64 -197v-451z" />
<glyph unicode="&#x143;" horiz-adv-x="1256" d="M960 0l-678 1142v-1142h-126v1362h141l678 -1143v1143h126v-1362h-141zM553 1430l249 389h154l-295 -389h-108z" />
<glyph unicode="&#x144;" d="M152 0v804l-55 219l121 30l31 -125l109 109h457l160 -159v-878h-127v823l-87 87h-353l-130 -130v-780h-126zM510 1125l249 388h154l-295 -388h-108z" />
<glyph unicode="&#x145;" horiz-adv-x="1256" d="M960 0l-678 1142v-1142h-126v1362h141l678 -1143v1143h126v-1362h-141zM453 -535l107 467h146l-165 -467h-88z" />
<glyph unicode="&#x146;" d="M152 0v804l-55 219l121 30l31 -125l109 109h457l160 -159v-878h-127v823l-87 87h-353l-130 -130v-780h-126zM407 -535l107 467h145l-165 -467h-87z" />
<glyph unicode="&#x147;" horiz-adv-x="1256" d="M960 0l-678 1142v-1142h-126v1362h141l678 -1143v1143h126v-1362h-141zM574 1411l-234 262h109l191 -181l193 181h108l-233 -262h-134z" />
<glyph unicode="&#x148;" d="M152 0v804l-55 219l121 30l31 -125l109 109h457l160 -159v-878h-127v823l-87 87h-353l-130 -130v-780h-126zM512 1125l-234 262h110l190 -181l192 181h110l-234 -262h-134z" />
<glyph unicode="&#x14c;" horiz-adv-x="1235" d="M336 1362h563l220 -200v-962l-220 -200h-563l-219 200v962zM992 1109l-140 126h-469l-140 -126v-856l140 -127h469l140 127v856zM351 1489v126h529v-126h-529z" />
<glyph unicode="&#x14d;" horiz-adv-x="1064" d="M947 162l-159 -162h-512l-159 162v714l159 161h512l159 -161v-714zM329 126h406l86 88v609l-86 87h-406l-86 -87v-609zM267 1164v126h529v-126h-529z" />
<glyph unicode="&#x150;" horiz-adv-x="1235" d="M336 1362h563l220 -200v-962l-220 -200h-563l-219 200v962zM992 1109l-140 126h-469l-140 -126v-856l140 -127h469l140 127v856zM405 1469l249 389h154l-294 -389h-109zM689 1469l249 389h154l-294 -389h-109z" />
<glyph unicode="&#x151;" horiz-adv-x="1064" d="M947 162l-159 -162h-512l-159 162v714l159 161h512l159 -161v-714zM329 126h406l86 88v609l-86 87h-406l-86 -87v-609zM336 1125l249 388h154l-293 -388h-110zM620 1125l249 388h154l-293 -388h-110z" />
<glyph unicode="&#x152;" horiz-adv-x="1775" d="M336 0l-219 200v962l219 200h1402v-127h-717v-451h635v-127h-635v-531h717v-126h-1402zM243 253l140 -127h512v1109h-512l-140 -126v-856z" />
<glyph unicode="&#x153;" horiz-adv-x="1645" d="M1358 126l172 54l38 -117l-198 -63h-429l-96 97l-96 -97h-473l-159 162v714l159 161h473l96 -97l96 97h464l160 -159v-286l-160 -158h-497v-222l87 -86h363zM329 126h367l86 88v609l-86 87h-367l-86 -87v-609zM995 910l-87 -85v-265h444l85 86v179l-85 85h-357z" />
<glyph unicode="&#x154;" horiz-adv-x="1177" d="M282 533v-533h-126v1362h743l200 -198v-432l-200 -199h-275l471 -470l-89 -92l-560 562h-164zM845 1235h-563v-576h563l128 127v323zM494 1469l249 389h154l-294 -389h-109z" />
<glyph unicode="&#x155;" horiz-adv-x="893" d="M652 910h-244l-130 -130v-780h-126v804l-55 219l121 30l31 -125l109 109h346l189 -185l-87 -91zM446 1125l248 388h154l-293 -388h-109z" />
<glyph unicode="&#x156;" horiz-adv-x="1177" d="M282 533v-533h-126v1362h743l200 -198v-432l-200 -199h-275l471 -470l-89 -92l-560 562h-164zM845 1235h-563v-576h563l128 127v323zM416 -535l107 467h147l-166 -467h-88z" />
<glyph unicode="&#x157;" horiz-adv-x="893" d="M652 910h-244l-130 -130v-780h-126v804l-55 219l121 30l31 -125l109 109h346l189 -185l-87 -91zM52 -535l108 467h146l-166 -467h-88z" />
<glyph unicode="&#x158;" horiz-adv-x="1177" d="M282 533v-533h-126v1362h743l200 -198v-432l-200 -199h-275l471 -470l-89 -92l-560 562h-164zM845 1235h-563v-576h563l128 127v323zM541 1450l-233 262h108l191 -181l193 181h108l-233 -262h-134z" />
<glyph unicode="&#x159;" horiz-adv-x="893" d="M652 910h-244l-130 -130v-780h-126v804l-55 219l121 30l31 -125l109 109h346l189 -185l-87 -91zM467 1125l-233 262h108l191 -181l193 181h109l-234 -262h-134z" />
<glyph unicode="&#x15a;" horiz-adv-x="1058" d="M763 1235h-434l-125 -124v-140l24 -49l693 -337l59 -112v-274l-198 -199h-504l-196 66l41 119l169 -59h438l124 125v185l-28 50l-696 339l-52 109v230l198 198h510l191 -64l-39 -117zM434 1469l249 389h154l-295 -389h-108z" />
<glyph unicode="&#x15b;" horiz-adv-x="927" d="M739 331l-21 42l-595 210l-60 117v178l158 159h453l195 -66l-41 -119l-169 58h-383l-87 -87v-91l21 -45l596 -210l59 -115v-202l-159 -160h-451l-197 63l39 120l174 -57h381l87 88v117zM397 1125l249 388h154l-295 -388h-108z" />
<glyph unicode="&#x15e;" horiz-adv-x="1058" d="M763 1235h-434l-125 -124v-140l24 -49l693 -337l59 -112v-274l-198 -199h-504l-196 66l41 119l169 -59h438l124 125v185l-28 50l-696 339l-52 109v230l198 198h510l191 -64l-39 -117zM351 -555l106 468h146l-165 -468h-87z" />
<glyph unicode="&#x15f;" horiz-adv-x="927" d="M739 331l-21 42l-595 210l-60 117v178l158 159h453l195 -66l-41 -119l-169 58h-383l-87 -87v-91l21 -45l596 -210l59 -115v-202l-159 -160h-451l-197 63l39 120l174 -57h381l87 88v117zM301 -555l107 468h147l-165 -468h-89z" />
<glyph unicode="&#x160;" horiz-adv-x="1058" d="M763 1235h-434l-125 -124v-140l24 -49l693 -337l59 -112v-274l-198 -199h-504l-196 66l41 119l169 -59h438l124 125v185l-28 50l-696 339l-52 109v230l198 198h510l191 -64l-39 -117zM479 1450l-234 262h109l190 -181l193 181h109l-233 -262h-134z" />
<glyph unicode="&#x161;" horiz-adv-x="927" d="M739 331l-21 42l-595 210l-60 117v178l158 159h453l195 -66l-41 -119l-169 58h-383l-87 -87v-91l21 -45l596 -210l59 -115v-202l-159 -160h-451l-197 63l39 120l174 -57h381l87 88v117zM401 1125l-234 262h109l191 -181l192 181h110l-234 -262h-134z" />
<glyph unicode="&#x162;" horiz-adv-x="982" d="M555 1235v-1235h-127v1235h-428v127h982v-127h-427zM321 -555l107 468h146l-166 -468h-87z" />
<glyph unicode="&#x163;" horiz-adv-x="832" d="M224 865h-185v127h185v311h127v-311h330v-127h-330v-653l85 -86h182l176 54l39 -117l-198 -63h-252l-159 160v705zM351 -555l106 468h146l-165 -468h-87z" />
<glyph unicode="&#x164;" horiz-adv-x="982" d="M555 1235v-1235h-127v1235h-428v127h982v-127h-427zM422 1450l-233 262h108l191 -181l193 181h108l-232 -262h-135z" />
<glyph unicode="&#x165;" horiz-adv-x="904" d="M224 865h-185v127h185v311h127v-311h310v-127h-310v-653l85 -86h182l176 54l39 -117l-198 -63h-252l-159 160v705zM691 895l107 467h145l-165 -467h-87z" />
<glyph unicode="&#x16a;" horiz-adv-x="1216" d="M336 0l-200 199v1163h126v-1109l129 -127h434l129 127v1109h126v-1163l-200 -199h-544zM347 1489v126h529v-126h-529z" />
<glyph unicode="&#x16b;" d="M940 1037v-803l55 -221l-121 -28l-31 124l-110 -109h-457l-159 160v877h126v-823l88 -88h352l130 130v781h127zM265 1164v126h529v-126h-529z" />
<glyph unicode="&#x16e;" horiz-adv-x="1216" d="M336 0l-200 199v1163h126v-1109l129 -127h434l129 127v1109h126v-1163l-200 -199h-544zM529 1829h158l121 -121v-158l-121 -120h-158l-121 120v158zM644 1712h-72l-47 -47v-72l47 -46h72l47 46v72z" />
<glyph unicode="&#x16f;" d="M940 1037v-803l55 -221l-121 -28l-31 124l-110 -109h-457l-159 160v877h126v-823l88 -88h352l130 130v781h127zM449 1504h158l121 -121v-157l-121 -121h-158l-120 121v157zM564 1387h-72l-46 -47v-72l46 -46h72l47 46v72z" />
<glyph unicode="&#x170;" horiz-adv-x="1216" d="M336 0l-200 199v1163h126v-1109l129 -127h434l129 127v1109h126v-1163l-200 -199h-544zM393 1430l249 389h154l-294 -389h-109zM677 1430l249 389h154l-294 -389h-109z" />
<glyph unicode="&#x171;" d="M940 1037v-803l55 -221l-121 -28l-31 124l-110 -109h-457l-159 160v877h126v-823l88 -88h352l130 130v781h127zM331 1086l249 388h153l-293 -388h-109zM615 1086l249 388h153l-293 -388h-109z" />
<glyph unicode="&#x172;" horiz-adv-x="1216" d="M336 0l-200 199v1163h126v-1109l129 -127h434l129 127v1109h126v-1163l-200 -199h-213v-154l47 -46h190v-127h-243l-120 121v206h-205z" />
<glyph unicode="&#x173;" d="M862 31l-19 78l-110 -109h-457l-159 160v877h126v-823l88 -88h352l130 130v781h127v-803l57 -224l-180 -140v-47l47 -41h204v-109h-243l-121 115v121z" />
<glyph unicode="&#x178;" horiz-adv-x="1088" d="M607 0h-126v514l-462 801l113 66l412 -716l414 716l112 -66l-463 -803v-512zM329 1494l-47 47v82l47 46h81l47 -46v-82l-47 -47h-81zM679 1494l-46 47v82l46 46h82l47 -46v-82l-47 -47h-82z" />
<glyph unicode="&#x179;" horiz-adv-x="1001" d="M206 126h748v-126h-915v121l757 1114h-748v127h915v-124zM430 1469l249 389h154l-294 -389h-109z" />
<glyph unicode="&#x17a;" horiz-adv-x="878" d="M674 910h-631v127h798v-127l-635 -784h631v-126h-798v124zM379 1125l250 388h153l-294 -388h-109z" />
<glyph unicode="&#x17b;" horiz-adv-x="1001" d="M206 126h748v-126h-915v121l757 1114h-748v127h915v-124zM475 1508l-47 46v82l47 47h82l46 -47v-82l-46 -46h-82z" />
<glyph unicode="&#x17c;" horiz-adv-x="878" d="M674 910h-631v127h798v-127l-635 -784h631v-126h-798v124zM410 1177l-46 47v81l46 47h82l47 -47v-81l-47 -47h-82z" />
<glyph unicode="&#x17d;" horiz-adv-x="1001" d="M206 126h748v-126h-915v121l757 1114h-748v127h915v-124zM449 1450l-233 262h109l191 -181l192 181h109l-234 -262h-134z" />
<glyph unicode="&#x17e;" horiz-adv-x="878" d="M674 910h-631v127h798v-127l-635 -784h631v-126h-798v124zM381 1125l-233 262h108l191 -181l193 181h109l-233 -262h-135z" />
<glyph unicode="&#x218;" horiz-adv-x="1058" d="M763 1235h-434l-125 -124v-140l24 -49l693 -337l59 -112v-274l-198 -199h-504l-196 66l41 119l169 -59h438l124 125v185l-28 50l-696 339l-52 109v230l198 198h510l191 -64l-39 -117zM351 -555l106 468h146l-165 -468h-87z" />
<glyph unicode="&#x219;" horiz-adv-x="927" d="M739 331l-21 42l-595 210l-60 117v178l158 159h453l195 -66l-41 -119l-169 58h-383l-87 -87v-91l21 -45l596 -210l59 -115v-202l-159 -160h-451l-197 63l39 120l174 -57h381l87 88v117zM301 -555l107 468h147l-165 -468h-89z" />
<glyph unicode="&#x401;" horiz-adv-x="1036" d="M156 0v1362h842v-127h-716v-451h635v-127h-635v-531h716v-126h-842zM370 1533l-47 47v82l47 46h81l47 -46v-82l-47 -47h-81zM720 1533l-46 47v82l46 46h82l46 -46v-82l-46 -47h-82z" />
<glyph unicode="&#x402;" horiz-adv-x="1277" d="M1181 140l-99 -157l-273 -100l-40 119l226 78l59 87v466l-83 81h-535l-66 -21v-693h-127v1235h-282v127h691v-127h-282v-410l54 16h597l160 -162v-539z" />
<glyph unicode="&#x403;" horiz-adv-x="995" d="M282 1235v-1235h-126v1362h841v-127h-715zM477 1450l195 330h145l-214 -330h-126z" />
<glyph unicode="&#x404;" horiz-adv-x="1125" d="M828 126l149 149l91 -90l-184 -185h-567l-200 200v962l200 200h543l200 -200v-219h-126v166l-126 126h-438l-127 -126v-362h557v-127h-557v-367l127 -127h458z" />
<glyph unicode="&#x405;" horiz-adv-x="1058" d="M763 1235h-434l-125 -124v-140l24 -49l693 -337l59 -112v-274l-198 -199h-504l-196 66l41 119l169 -59h438l124 125v185l-28 50l-696 339l-52 109v230l198 198h510l191 -64l-39 -117z" />
<glyph unicode="&#x406;" horiz-adv-x="694" d="M636 0h-578v126h226v1109h-226v127h578v-127h-226v-1109h226v-126z" />
<glyph unicode="&#x407;" horiz-adv-x="694" d="M636 0h-578v126h226v1109h-226v127h578v-127h-226v-1109h226v-126zM132 1508l-46 46v82l46 47h82l46 -47v-82l-46 -46h-82zM483 1508l-47 46v82l47 47h81l47 -47v-82l-47 -46h-81z" />
<glyph unicode="&#x408;" horiz-adv-x="1025" d="M228 0l-228 228l91 89l193 -191h352l127 127v982h-327v127h453v-1162l-200 -200h-461z" />
<glyph unicode="&#x409;" horiz-adv-x="1881" d="M940 0v1235h-477l-116 -1064l-123 -132l-185 -58l-39 120l152 49l74 80l125 1132h715v-551h558l199 -202v-407l-199 -202h-684zM1697 555l-127 130h-504v-559h504l127 130v299z" />
<glyph unicode="&#x40a;" horiz-adv-x="1855" d="M915 796v566h126v-566h558l198 -202v-392l-198 -202h-684v670h-633v-670h-126v1362h126v-566h633zM1671 539l-126 131h-504v-544h504l126 130v283z" />
<glyph unicode="&#x40b;" horiz-adv-x="1277" d="M652 1235h-282v-410l54 16h597l160 -162v-679h-127v633l-83 81h-535l-66 -21v-693h-127v1235h-282v127h691v-127z" />
<glyph unicode="&#x40c;" horiz-adv-x="1108" d="M284 1362v-619h220l341 572l206 66l39 -122l-158 -51l-314 -527l316 -527l156 -50l-39 -123l-206 66l-341 570h-220v-617h-128v1362h128zM457 1381l195 331h146l-215 -331h-126z" />
<glyph unicode="&#x40e;" horiz-adv-x="1084" d="M893 1580l-119 -117h-449l-119 117v173h126v-119l45 -45h345l45 45v119h126v-173zM523 290l-523 1039l111 56l474 -943l388 943l113 -46l-503 -1222l-120 -117h-268v126h219l69 67z" />
<glyph unicode="&#x40f;" horiz-adv-x="1252" d="M691 0v-327h-127v327h-408v1358h126v-1232h689v1232h126v-1358h-406z" />
<glyph unicode="&#x410;" horiz-adv-x="1123" d="M301 412l-139 -431l-123 38l434 1343h179l434 -1343l-123 -38l-140 431h-522zM342 539h440l-220 681z" />
<glyph unicode="&#x411;" horiz-adv-x="1177" d="M156 0v1362h861v-127h-735v-424h619l198 -202v-407l-198 -202h-745zM973 555l-127 130h-564v-559h564l127 130v299z" />
<glyph unicode="&#x412;" horiz-adv-x="1196" d="M963 720l136 -139v-381l-200 -200h-743v1362h741l161 -161v-386zM973 531l-123 125h-568v-530h568l123 123v282zM282 1235v-453h564l86 85v283l-86 85h-564z" />
<glyph unicode="&#x413;" horiz-adv-x="995" d="M282 1235v-1235h-126v1362h841v-127h-715z" />
<glyph unicode="&#x414;" horiz-adv-x="1275" d="M1238 126v-453h-127v327h-985v-327h-126v453h123l89 160l119 1076h764v-1236h143zM334 247l-67 -121h702v1109h-525q-16 -148 -52.5 -467.5t-57.5 -520.5z" />
<glyph unicode="&#x415;" horiz-adv-x="1036" d="M156 0v1362h842v-127h-716v-451h635v-127h-635v-531h716v-126h-842z" />
<glyph unicode="&#x416;" horiz-adv-x="1612" d="M743 743v619h126v-619h139l340 572l206 66l39 -122l-158 -51l-312 -527l314 -527l156 -50l-39 -123l-206 66l-340 570h-139v-617h-126v617h-138l-340 -570l-207 -66l-39 123l156 50l315 527l-313 527l-158 51l39 122l207 -66l340 -572h138z" />
<glyph unicode="&#x417;" horiz-adv-x="1038" d="M802 876v243l-115 116h-455l-169 -58l-44 119l199 66h523l187 -187v-356l-122 -121l135 -139v-360l-198 -199h-552l-191 65l43 118l173 -57h473l126 127v251l-126 131h-392v126h394z" />
<glyph unicode="&#x418;" horiz-adv-x="1256" d="M975 1142l-676 -1142h-143v1362h126v-1143l676 1143h143v-1362h-126v1142z" />
<glyph unicode="&#x419;" horiz-adv-x="1256" d="M971 1619l-119 -117h-449l-119 117v173h126v-119l45 -45h345l45 45v119h126v-173zM975 1142l-676 -1142h-143v1362h126v-1143l676 1143h143v-1362h-126v1142z" />
<glyph unicode="&#x41a;" horiz-adv-x="1108" d="M284 1362v-619h220l341 572l206 66l39 -122l-158 -51l-314 -527l316 -527l156 -50l-39 -123l-206 66l-341 570h-220v-617h-128v1362h128z" />
<glyph unicode="&#x41b;" horiz-adv-x="1279" d="M1125 1362v-1362h-127v1235h-535l-116 -1064l-123 -132l-185 -58l-39 120l152 49l74 80l125 1132h774z" />
<glyph unicode="&#x41c;" horiz-adv-x="1617" d="M864 323h-109l-473 807v-1130h-126v1362h139l514 -878l514 878h140v-1362h-126v1130z" />
<glyph unicode="&#x41d;" horiz-adv-x="1254" d="M973 770v592h126v-1362h-126v644h-691v-644h-126v1362h126v-592h691z" />
<glyph unicode="&#x41e;" horiz-adv-x="1235" d="M336 1362h563l220 -200v-962l-220 -200h-563l-219 200v962zM992 1109l-140 126h-469l-140 -126v-856l140 -127h469l140 127v856z" />
<glyph unicode="&#x41f;" horiz-adv-x="1254" d="M282 1235v-1235h-126v1362h943v-1362h-126v1235h-691z" />
<glyph unicode="&#x420;" horiz-adv-x="1177" d="M282 520v-520h-126v1362h743l200 -198v-446l-200 -198h-617zM845 1235h-563v-589h563l128 126v337z" />
<glyph unicode="&#x421;" horiz-adv-x="1125" d="M828 126l149 149l91 -90l-184 -185h-567l-200 200v962l200 200h543l200 -200v-219h-126v166l-126 126h-438l-127 -126v-856l127 -127h458z" />
<glyph unicode="&#x422;" horiz-adv-x="982" d="M555 1235v-1235h-127v1235h-428v127h982v-127h-427z" />
<glyph unicode="&#x423;" horiz-adv-x="1084" d="M523 290l-523 1039l111 56l474 -943l388 943l113 -46l-503 -1222l-120 -117h-268v126h219l69 67z" />
<glyph unicode="&#x424;" horiz-adv-x="1565" d="M297 1264h423v225h126v-225h422l201 -200v-689l-201 -200h-422v-223h-126v223h-423l-200 200v689zM1216 1138h-370v-837h370l126 127v584zM720 1138h-369l-127 -126v-584l127 -127h369v837z" />
<glyph unicode="&#x425;" horiz-adv-x="1058" d="M146 1381l383 -583l384 583l106 -70l-414 -630l411 -631l-108 -69l-379 583l-379 -583l-107 69l410 631l-414 630z" />
<glyph unicode="&#x426;" horiz-adv-x="1299" d="M156 0v1358h126v-1232h689v1232h126v-1232h164v-453h-127v327h-978z" />
<glyph unicode="&#x427;" horiz-adv-x="1209" d="M928 670v692h126v-1362h-126v537l-54 -15h-598l-159 161v679h126v-632l84 -82h535z" />
<glyph unicode="&#x428;" horiz-adv-x="1900" d="M1745 0h-1589v1362h124v-1236h607v1236h127v-1236h605v1236h126v-1362z" />
<glyph unicode="&#x429;" horiz-adv-x="1949" d="M156 0v1362h126v-1236h607v1236h127v-1236h605v1236h126v-1236h163v-453h-126v327h-1628z" />
<glyph unicode="&#x42a;" horiz-adv-x="1307" d="M308 0v1235h-308v127h434v-551h617l198 -202v-407l-198 -202h-743zM1123 555l-126 130h-563v-559h563l126 130v299z" />
<glyph unicode="&#x42b;" horiz-adv-x="1598" d="M1317 0v1362h127v-1362h-127zM156 0v1362h126v-551h617l198 -202v-407l-198 -202h-743zM971 555l-126 130h-563v-559h563l126 130v299z" />
<glyph unicode="&#x42c;" horiz-adv-x="1155" d="M156 0v1362h126v-551h617l198 -202v-407l-198 -202h-743zM971 555l-126 130h-563v-559h563l126 130v299z" />
<glyph unicode="&#x42d;" horiz-adv-x="1125" d="M150 275l147 -149h460l127 127v367h-557v127h557v362l-127 126h-438l-126 -126v-166h-127v219l201 200h542l201 -200v-962l-201 -200h-566l-185 185z" />
<glyph unicode="&#x42e;" horiz-adv-x="1682" d="M845 1362h501l221 -200v-962l-221 -200h-501l-221 200v444h-342v-644h-126v1362h126v-592h342v392zM1440 1109l-140 126h-409l-140 -126v-856l140 -127h409l140 127v856z" />
<glyph unicode="&#x42f;" horiz-adv-x="1184" d="M902 0v518h-293l-292 -471l-198 -66l-41 120l156 53l225 364h-173l-200 198v448l200 198h743v-1362h-127zM902 1235h-562l-128 -126v-339l128 -126h562v591z" />
<glyph unicode="&#x430;" horiz-adv-x="1071" d="M921 878v-644l54 -221l-121 -28l-31 124l-109 -109h-456l-161 160v282l161 159h536v224l-88 85h-374l-169 -58l-40 119l196 66h440zM663 126l131 130v219h-482l-88 -85v-178l88 -86h351z" />
<glyph unicode="&#x431;" horiz-adv-x="1086" d="M243 895l63 63h482l159 -160v-638l-159 -160h-512l-159 160v945l225 226l405 70l154 153l89 -91l-179 -179l-404 -70l-164 -163v-156zM243 714v-502l86 -86h406l86 86v533l-86 85h-375z" />
<glyph unicode="&#x432;" horiz-adv-x="1034" d="M904 910v-309l-61 -62l95 -95v-286l-158 -158h-663v1037h661zM778 858l-52 52h-483v-307h483l52 53v202zM811 390l-89 87h-479v-351h483l85 86v178z" />
<glyph unicode="&#x433;" horiz-adv-x="836" d="M245 910v-910h-128v1037h720v-127h-592z" />
<glyph unicode="&#x434;" horiz-adv-x="1083" d="M919 0h-793v-273h-126v399h101l90 150l78 761h665v-911h111v-399h-126v273zM323 256l-76 -130h561v784h-417z" />
<glyph unicode="&#x435;" horiz-adv-x="1019" d="M732 126l170 54l39 -117l-198 -63h-467l-159 160v718l159 159h502l160 -159v-286l-160 -158h-535v-222l86 -86h403zM329 910l-86 -85v-265h483l85 86v179l-85 85h-397z" />
<glyph unicode="&#x436;" horiz-adv-x="1379" d="M753 453v-453h-127v453h-108l-286 -390l-154 -82l-59 110l121 65l267 362l-267 364l-121 63l59 111l154 -81l288 -395h106v457h127v-457h107l288 395l154 81l58 -111l-120 -63l-267 -364l267 -362l120 -65l-58 -110l-154 82l-286 390h-109z" />
<glyph unicode="&#x437;" horiz-adv-x="933" d="M826 617l-85 -88l96 -95v-274l-160 -160h-459l-199 63l39 117l176 -54h390l87 86v167l-89 88h-386v127h393l71 69v170l-78 77h-379q-21 -6 -83.5 -27.5t-87.5 -28.5l-39 117l197 66h445l151 -152v-268z" />
<glyph unicode="&#x438;" horiz-adv-x="1088" d="M292 0h-138v843l-57 171l119 39l64 -197v-648l555 829h138v-1037h-127v828z" />
<glyph unicode="&#x439;" horiz-adv-x="1088" d="M897 1303l-119 -116h-429l-119 116v173h126v-118l45 -45h325l44 45v118h127v-173zM292 0h-138v843l-57 171l119 39l64 -197v-648l555 829h138v-1037h-127v828z" />
<glyph unicode="&#x43a;" horiz-adv-x="945" d="M243 1037v-457h184l287 395l153 81l59 -111l-120 -63l-267 -364l267 -362l120 -65l-59 -110l-153 82l-286 390h-185v-453h-126v1037h126z" />
<glyph unicode="&#x43b;" horiz-adv-x="1075" d="M960 1037v-1037h-127v910h-421l-78 -747l-128 -130l-169 -52l-37 123l126 38l86 88l85 807h663z" />
<glyph unicode="&#x43c;" horiz-adv-x="1294" d="M648 391l391 646h140v-1037h-126v817l-349 -572h-112l-349 572v-817h-126v1037h139z" />
<glyph unicode="&#x43d;" d="M154 0v843l-57 171l119 39l64 -197v-264h568v445h127v-1037h-127v465h-568v-465h-126z" />
<glyph unicode="&#x43e;" horiz-adv-x="1064" d="M947 162l-159 -162h-512l-159 162v714l159 161h512l159 -161v-714zM329 126h406l86 88v609l-86 87h-406l-86 -87v-609z" />
<glyph unicode="&#x43f;" horiz-adv-x="1054" d="M243 910v-910h-126v988l48 49h724l49 -49v-988h-127v910h-568z" />
<glyph unicode="&#x440;" horiz-adv-x="1088" d="M278 243l117 -117h368l83 84v616l-83 84h-355l-130 -130v-537zM278 63l2 -390h-128v1131l-55 219l121 30l31 -125l109 109h457l158 -157v-722l-158 -158h-475z" />
<glyph unicode="&#x441;" horiz-adv-x="999" d="M732 126l170 54l39 -117l-198 -63h-467l-159 162v714l159 161h502l160 -161v-215h-127v167l-83 82h-401l-84 -82v-620l84 -82h405z" />
<glyph unicode="&#x442;" horiz-adv-x="818" d="M0 1037h819v-127h-346v-910h-126v910h-347v127z" />
<glyph unicode="&#x443;" horiz-adv-x="958" d="M416 -327h-249v127h201l52 52l49 148h-35l-415 1008l121 48l376 -916l305 916l119 -39l-409 -1229z" />
<glyph unicode="&#x444;" horiz-adv-x="1390" d="M633 1017v152l-57 171l118 39l65 -196v-166l54 20h304l157 -157v-722l-157 -158h-304l-54 17v-344h-126v344l-55 -17h-303l-158 158v722l158 157h303zM633 148v739l-65 23h-239l-86 -85v-613l86 -86h239zM759 887v-739l64 -22h239l86 86v613l-86 85h-239z" />
<glyph unicode="&#x445;" horiz-adv-x="878" d="M440 629l317 427l103 -76l-342 -462l340 -462l-103 -75l-315 426l-316 -426l-102 75l340 462l-343 462l104 76z" />
<glyph unicode="&#x446;" horiz-adv-x="1099" d="M934 0h-817v1037h126v-911h568v911h127v-911h122v-399h-126v273z" />
<glyph unicode="&#x447;" horiz-adv-x="1010" d="M769 522v515h126v-1037h-126v390l-55 -17h-459l-158 158v506h127v-452l86 -85h392z" />
<glyph unicode="&#x448;" horiz-adv-x="1581" d="M1465 0h-1348v1037h126v-911h485v911h126v-911h485v911h126v-1037z" />
<glyph unicode="&#x449;" horiz-adv-x="1626" d="M1461 0h-1344v1037h126v-911h485v911h126v-911h485v911h126v-911h122v-399h-126v273z" />
<glyph unicode="&#x44a;" horiz-adv-x="1182" d="M301 0v910h-282v127h409v-399h537l160 -159v-319l-160 -160h-664zM998 427l-85 85h-485v-386h485l85 86v215z" />
<glyph unicode="&#x44b;" horiz-adv-x="1348" d="M1231 1037v-1037h-126v1037h126zM117 0v1037h126v-399h537l160 -159v-319l-160 -160h-663zM813 427l-85 85h-485v-386h485l85 86v215z" />
<glyph unicode="&#x44c;" horiz-adv-x="997" d="M117 0v1037h126v-399h537l160 -159v-319l-160 -160h-663zM813 427l-85 85h-485v-386h485l85 86v215z" />
<glyph unicode="&#x44d;" horiz-adv-x="999" d="M97 180l172 -54h405l83 82v243h-486v129h486v248l-83 82h-401l-84 -82v-167h-126v215l158 161h503l160 -161v-714l-160 -162h-468l-198 63z" />
<glyph unicode="&#x44e;" horiz-adv-x="1390" d="M1274 162l-159 -162h-493l-159 162v303h-220v-465h-126v1037h126v-445h220v284l159 161h493l159 -161v-714zM675 126h387l86 86v613l-86 85h-387l-85 -85v-613z" />
<glyph unicode="&#x44f;" horiz-adv-x="1005" d="M763 408h-238l-258 -348l-150 -79l-59 110l117 63l189 254h-138l-158 156v318l158 155h663v-1037h-126v408zM276 535h487v375h-487l-81 -84v-208z" />
<glyph unicode="&#x451;" horiz-adv-x="1019" d="M732 126l170 54l39 -117l-198 -63h-467l-159 160v718l159 159h502l160 -159v-286l-160 -158h-535v-222l86 -86h403zM329 910l-86 -85v-265h483l85 86v179l-85 85h-397zM312 1177l-47 47v81l47 47h81l47 -47v-81l-47 -47h-81zM661 1177l-46 47v81l46 47h82l46 -47v-81 l-46 -47h-82z" />
<glyph unicode="&#x452;" horiz-adv-x="1081" d="M858 167v505l-84 83h-366l-116 -117v-638h-127v1019h-165v127h165v20l-56 171l119 39l64 -197v-33h328v-127h-328v-200l62 63h471l159 -160v-582l-99 -157l-272 -100l-41 119l226 78z" />
<glyph unicode="&#x453;" horiz-adv-x="836" d="M245 910v-910h-128v1037h720v-127h-592zM390 1125l193 330h147l-214 -330h-126z" />
<glyph unicode="&#x454;" horiz-adv-x="999" d="M732 126l170 54l39 -117l-198 -63h-467l-159 162v714l159 161h502l160 -161v-215h-127v167l-83 82h-401l-84 -82v-248h487v-129h-487v-243l84 -82h405z" />
<glyph unicode="&#x455;" horiz-adv-x="927" d="M739 331l-21 42l-595 210l-60 117v178l158 159h453l195 -66l-41 -119l-169 58h-383l-87 -87v-91l21 -45l596 -210l59 -115v-202l-159 -160h-451l-197 63l39 120l174 -57h381l87 88v117z" />
<glyph unicode="&#x456;" horiz-adv-x="419" d="M154 843l-57 171l119 39l64 -197v-856h-126v843zM175 1177l-47 47v81l47 47h81l47 -47v-81l-47 -47h-81z" />
<glyph unicode="&#x457;" horiz-adv-x="419" d="M15 1177l-46 47v81l46 47h82l47 -47v-81l-47 -47h-82zM334 1177l-46 47v81l46 47h82l47 -47v-81l-47 -47h-82zM154 843l-57 171l119 39l64 -197v-856h-126v843z" />
<glyph unicode="&#x458;" horiz-adv-x="416" d="M177 -247l-272 -100l-41 119l225 78l61 87v906l-57 171l119 39l64 -197v-945zM171 1177l-47 47v81l47 47h82l46 -47v-81l-46 -47h-82z" />
<glyph unicode="&#x459;" horiz-adv-x="1596" d="M774 0v910h-362l-78 -747l-128 -130l-169 -52l-37 123l126 38l86 88l85 807h604v-399h478l160 -159v-319l-160 -160h-605zM1413 427l-86 85h-426v-386h426l86 86v215z" />
<glyph unicode="&#x45a;" horiz-adv-x="1612" d="M789 0v494h-509v-494h-126v843l-57 171l119 39l64 -197v-236h509v417h128v-417h478l159 -159v-301l-159 -160h-606zM1428 408l-86 86h-425v-368h425l86 86v196z" />
<glyph unicode="&#x45b;" horiz-adv-x="1081" d="M620 1019h-328v-191l62 63h471l159 -159v-732h-126v681l-84 84h-366l-116 -117v-648h-127v1019h-165v127h165v20l-56 171l119 39l64 -197v-33h328v-127z" />
<glyph unicode="&#x45c;" horiz-adv-x="945" d="M243 1037v-457h184l287 395l153 81l59 -111l-120 -63l-267 -364l267 -362l120 -65l-59 -110l-153 82l-286 390h-185v-453h-126v1037h126zM390 1056l193 331h147l-214 -331h-126z" />
<glyph unicode="&#x45e;" horiz-adv-x="958" d="M830 1279l-118 -117h-430l-119 117v173h127v-119l44 -45h325l45 45v119h126v-173zM416 -327h-249v127h201l52 52l49 148h-35l-415 1008l121 48l376 -916l305 916l119 -39l-409 -1229z" />
<glyph unicode="&#x45f;" horiz-adv-x="1054" d="M592 0v-273h-127v273h-348v1037h126v-911h568v911h127v-1037h-346z" />
<glyph unicode="&#x490;" horiz-adv-x="995" d="M997 1235h-715v-1235h-126v1362h711v175h130v-302z" />
<glyph unicode="&#x491;" horiz-adv-x="836" d="M837 910h-592v-910h-128v1037h591v155h129v-282z" />
<glyph unicode="&#x2013;" horiz-adv-x="1023" d="M39 520v128h945v-128h-945z" />
<glyph unicode="&#x2014;" horiz-adv-x="1385" d="M39 520v128h1307v-128h-1307z" />
<glyph unicode="&#x2018;" horiz-adv-x="271" d="M253 1362l-107 -467h-146l165 467h88z" />
<glyph unicode="&#x2019;" horiz-adv-x="271" d="M19 895l107 467h147l-166 -467h-88z" />
<glyph unicode="&#x201a;" horiz-adv-x="271" d="M19 -351l107 468h147l-166 -468h-88z" />
<glyph unicode="&#x201c;" horiz-adv-x="534" d="M516 1362l-108 -467h-146l166 467h88zM253 1362l-107 -467h-146l165 467h88z" />
<glyph unicode="&#x201d;" horiz-adv-x="534" d="M19 895l107 467h147l-166 -467h-88zM282 895l108 467h145l-165 -467h-88z" />
<glyph unicode="&#x201e;" horiz-adv-x="534" d="M19 -351l107 468h147l-166 -468h-88zM282 -351l108 468h145l-165 -468h-88z" />
<glyph unicode="&#x2020;" horiz-adv-x="797" d="M0 788v127h334v447h129v-447h335v-127h-335v-1115h-129v1115h-334z" />
<glyph unicode="&#x2021;" horiz-adv-x="797" d="M0 788v127h334v447h129v-447h335v-127h-335v-541h335v-126h-335v-448h-129v448h-334v126h334v541h-334z" />
<glyph unicode="&#x2022;" horiz-adv-x="758" d="M256 963h246l159 -159v-245l-159 -160h-246l-159 160v245z" />
<glyph unicode="&#x2026;" horiz-adv-x="874" d="M105 -19l-47 47v81l47 47h82l47 -47v-81l-47 -47h-82zM397 -19l-46 47v81l46 47h82l46 -47v-81l-46 -47h-82zM689 -19l-47 47v81l47 47h81l47 -47v-81l-47 -47h-81z" />
<glyph unicode="&#x2030;" horiz-adv-x="2024" d="M119 54l1029 1333l96 -74l-1028 -1335zM901 564h245l159 -159v-245l-159 -160h-245l-160 160v245zM1093 438h-139l-87 -86v-140l87 -86h139l86 86v140zM218 1362h245l159 -159v-245l-159 -160h-245l-160 160v245zM410 1235h-139l-86 -85v-140l86 -86h139l86 86v140z M1563 564h245l159 -159v-245l-159 -160h-245l-160 160v245zM1755 438h-140l-85 -86v-140l85 -86h140l85 86v140z" />
<glyph unicode="&#x2039;" horiz-adv-x="678" d="M39 467v90l537 460l83 -95l-476 -410l476 -411l-83 -95z" />
<glyph unicode="&#x203a;" horiz-adv-x="678" d="M640 557v-90l-536 -461l-85 95l477 411l-477 410l85 95z" />
<glyph unicode="&#x20ac;" horiz-adv-x="1125" d="M0 739v117h117v306l200 200h543l200 -200v-219h-126v166l-126 126h-438l-127 -126v-253h574v-117h-574v-117h555v-117h-555v-252l127 -127h458l149 149l91 -90l-184 -185h-567l-200 200v305h-136v117h136v117h-117z" />
<glyph unicode="&#x2116;" horiz-adv-x="1826" d="M1222 583v128h529v-128h-529zM1364 1362h245l160 -159v-245l-160 -160h-245l-159 160v245zM1556 1235h-140l-85 -85v-140l85 -86h140l87 86v140zM958 0l-676 1142v-1142h-126v1362h143l676 -1143v1143h126v-1362h-143z" />
<glyph unicode="&#x2122;" horiz-adv-x="1417" d="M0 1362h594v-127h-234v-515h-126v515h-234v127zM1041 884h-109l-154 245v-409h-126v642h134l202 -321l200 321h133v-642h-127v409z" />
<glyph unicode="&#x25fc;" horiz-adv-x="1060" d="M0 1060h1060v-1060h-1060v1060z" />
<glyph horiz-adv-x="4561" d="M2636 312q0 -139 -95.5 -235t-234.5 -96t-235 96t-96 235t96 234.5t235 95.5t234.5 -95.5t95.5 -234.5zM661 0h-622v622zM3930 0h-622l311 622zM4281 311.5q0 -138.5 -96.5 -234.5t-235.5 -96v661q139 0 235.5 -96t96.5 -234.5zM3288 622v-574l-555 574h555zM2685 0v574 l555 -574h-555zM1303 622l312 -622h-312v622zM1927 622v-622h-312zM661 0v312l623 -312h-623zM661 622h623l-623 -310v310zM943 691h-622l622 622v-622zM1654 1002q0 -139 -96 -234.5t-235 -95.5t-235 95.5t-96 234.5t96 235t235 96t235 -96t96 -235zM1595 1313h623 l-311 -622zM2617 691h-623l312 622zM3240 1313v-574l-555 574h555zM2636 691v573l555 -573h-555zM3921 1313v-574l-555 574h555zM3317 691v573l555 -573h-555zM3940 1313h623l-312 -622z" />
</font>
</defs>
</svg>
