<?xml version="1.0" standalone="no"?>
<!DOCTYPE svg PUBLIC "-//W3C//DTD SVG 20010904//EN"
 "http://www.w3.org/TR/2001/REC-SVG-20010904/DTD/svg10.dtd">
<svg version="1.0" xmlns="http://www.w3.org/2000/svg"
 width="400.000000pt" height="400.000000pt" viewBox="0 0 400.000000 400.000000"
 preserveAspectRatio="xMidYMid meet">

<g transform="translate(0.000000,400.000000) scale(0.100000,-0.100000)"
fill="#000000" stroke="none">
<path d="M0 2000 l0 -2000 2000 0 2000 0 0 2000 0 2000 -2000 0 -2000 0 0
-2000z m1481 1437 c-10 -9 -11 -8 -5 6 3 10 9 15 12 12 3 -3 0 -11 -7 -18z
m119 -12 c17 -9 30 -18 30 -21 0 -4 -59 23 -69 32 -10 9 13 3 39 -11z m-143
-67 c-3 -8 -6 -5 -6 6 -1 11 2 17 5 13 3 -3 4 -12 1 -19z m290 6 c-3 -3 -12
-4 -19 -1 -8 3 -5 6 6 6 11 1 17 -2 13 -5z m296 -1 c-24 -2 -62 -2 -85 0 -24
2 -5 4 42 4 47 0 66 -2 43 -4z m-165 -10 c-21 -2 -57 -2 -80 0 -24 2 -7 4 37
4 44 0 63 -2 43 -4z m352 -4 c36 -5 69 -14 74 -19 5 -6 -5 -5 -25 0 -19 5 -70
13 -114 18 -48 6 -64 10 -40 11 22 0 69 -4 105 -10z m274 -79 c25 -10 46 -22
46 -24 0 -5 -91 31 -99 40 -9 8 8 4 53 -16z m-1047 -32 c-3 -8 -6 -5 -6 6 -1
11 2 17 5 13 3 -3 4 -12 1 -19z m-37 -21 c0 -2 -12 -14 -27 -28 l-28 -24 24
28 c23 25 31 32 31 24z m1270 -43 c0 -2 -13 2 -30 11 -16 9 -30 18 -30 21 0 2
14 -2 30 -11 17 -9 30 -18 30 -21z m-1223 -6 c-3 -8 -6 -5 -6 6 -1 11 2 17 5
13 3 -3 4 -12 1 -19z m-134 -68 c-9 -22 -18 -38 -20 -36 -5 5 24 76 31 76 2 0
-3 -18 -11 -40z m1518 -36 c8 -9 -12 2 -43 26 -32 24 -58 45 -58 47 0 7 86
-55 101 -73z m-1577 36 c25 -9 36 -43 17 -54 -4 -3 -6 5 -4 18 4 18 0 25 -20
30 -14 3 -37 2 -51 -4 -32 -12 -35 -3 -3 10 29 12 31 12 61 0z m-94 -14 c0 -2
-8 -10 -17 -17 -16 -13 -17 -12 -4 4 13 16 21 21 21 13z m-40 -29 c0 -2 -17
-19 -37 -38 l-38 -34 34 38 c33 34 41 42 41 34z m1820 -92 c47 -47 82 -85 80
-85 -3 0 -43 38 -90 85 -47 47 -82 85 -80 85 3 0 43 -38 90 -85z m-1653 33
c-3 -7 -5 -2 -5 12 0 14 2 19 5 13 2 -7 2 -19 0 -25z m-257 -31 c0 -1 -24 -25
-52 -52 l-53 -50 50 53 c46 48 55 57 55 49z m227 -19 c-3 -8 -6 -5 -6 6 -1 11
2 17 5 13 3 -3 4 -12 1 -19z m1814 -130 c31 -43 17 -34 -21 15 -19 23 -26 36
-17 28 10 -8 27 -27 38 -43z m-2141 39 c0 -2 -10 -12 -22 -23 l-23 -19 19 23
c18 21 26 27 26 19z m290 -22 c-13 -14 -19 -25 -13 -25 6 0 10 -25 10 -57 0
-48 -2 -53 -8 -28 -5 17 -6 38 -3 48 9 28 -7 20 -50 -26 -23 -24 -31 -31 -18
-17 33 39 27 48 -10 15 -18 -17 -2 3 37 43 38 39 71 72 74 72 2 0 -6 -11 -19
-25z m30 -11 c-13 -33 -13 -100 1 -127 10 -21 10 -21 -5 -3 -18 22 -21 91 -6
130 5 14 12 26 15 26 2 0 0 -12 -5 -26z m1883 -93 c27 -46 14 -38 -18 12 -16
23 -22 37 -14 30 8 -6 22 -25 32 -42z m-2282 22 c-5 -10 -17 -27 -26 -38 -16
-19 -16 -19 -4 5 13 27 29 50 36 50 2 0 -1 -8 -6 -17z m492 -70 c-7 -2 -19 -2
-25 0 -7 3 -2 5 12 5 14 0 19 -2 13 -5z m236 -44 c13 -9 13 -10 -4 -4 -11 3
-42 11 -70 17 -27 6 -54 15 -59 19 -13 11 113 -19 133 -32z m221 38 c0 -2 -10
-12 -22 -23 l-23 -19 19 23 c18 21 26 27 26 19z m-729 -39 c-10 -11 -11 -9 -5
6 6 15 4 17 -6 11 -9 -6 -11 -4 -5 4 5 9 10 10 18 2 8 -8 7 -14 -2 -23z m352
15 c-7 -2 -19 -2 -25 0 -7 3 -2 5 12 5 14 0 19 -2 13 -5z m108 -19 c30 -9 58
-20 63 -24 7 -7 -90 19 -129 34 -27 11 18 4 66 -10z m259 3 c0 -2 -10 -12 -22
-23 l-23 -19 19 23 c18 21 26 27 26 19z m-1032 -52 c-12 -24 -23 -43 -26 -41
-4 5 36 86 43 86 3 0 -5 -20 -17 -45z m2447 14 c9 -17 15 -33 13 -35 -3 -2
-12 12 -21 31 -21 43 -13 47 8 4z m-1482 -24 c-3 -9 -8 -14 -10 -11 -3 3 -2 9
2 15 9 16 15 13 8 -4z m-722 -55 c-14 -27 -28 -45 -30 -39 -1 5 -10 2 -17 -8
-8 -10 -3 6 11 35 14 29 30 50 35 47 5 -3 11 -1 15 5 3 5 8 10 10 10 1 0 -9
-22 -24 -50z m719 18 c0 -6 -6 -5 -15 2 -8 7 -15 14 -15 16 0 2 7 1 15 -2 8
-4 15 -11 15 -16z m110 -63 c35 -36 62 -65 59 -65 -2 0 -34 29 -69 65 -35 36
-62 65 -59 65 2 0 34 -29 69 -65z m32 -70 c25 -35 18 -29 -48 45 -39 44 -41
48 -10 20 21 -19 47 -48 58 -65z m1432 -50 c4 -27 0 -19 -14 25 -10 36 -19 67
-19 70 2 15 28 -62 33 -95z m-2615 21 c-6 -26 -13 -45 -16 -43 -2 3 1 26 8 51
6 26 13 45 16 43 2 -3 -1 -26 -8 -51z m250 -2 c4 3 -1 -29 -13 -71 -17 -63
-21 -72 -28 -52 -5 12 -6 37 -2 53 6 28 8 29 16 11 6 -14 7 -10 3 15 -4 27 -2
31 6 20 8 -12 9 -8 5 15 -3 17 -3 24 0 17 3 -6 9 -10 13 -8z m1001 -74 c11
-22 18 -40 15 -40 -2 0 -14 18 -25 40 -11 22 -18 40 -15 40 2 0 14 -18 25 -40z
m-1273 -2 c-3 -8 -6 -5 -6 6 -1 11 2 17 5 13 3 -3 4 -12 1 -19z m1312 -20 c13
-38 0 -26 -17 15 -7 16 -8 26 -3 23 5 -3 14 -20 20 -38z m-1322 -30 c-3 -8 -6
-5 -6 6 -1 11 2 17 5 13 3 -3 4 -12 1 -19z m2670 0 c-3 -8 -6 -5 -6 6 -1 11 2
17 5 13 3 -3 4 -12 1 -19z m-2440 -30 c-3 -7 -5 -2 -5 12 0 14 2 19 5 13 2 -7
2 -19 0 -25z m10 -40 c-3 -8 -6 -5 -6 6 -1 11 2 17 5 13 3 -3 4 -12 1 -19z
m2440 0 c-3 -8 -6 -5 -6 6 -1 11 2 17 5 13 3 -3 4 -12 1 -19z m-1322 -131 l4
-82 -8 75 c-5 42 -11 87 -15 100 -6 22 -5 23 5 7 6 -11 13 -56 14 -100z m12
71 c-3 -8 -6 -5 -6 6 -1 11 2 17 5 13 3 -3 4 -12 1 -19z m-1160 -20 c-3 -8 -6
-5 -6 6 -1 11 2 17 5 13 3 -3 4 -12 1 -19z m20 -10 c-3 -7 -5 -2 -5 12 0 14 2
19 5 13 2 -7 2 -19 0 -25z m-250 -125 c-2 -27 -3 -5 -3 47 0 52 1 74 3 48 2
-27 2 -69 0 -95z m1400 70 c-2 -16 -4 -5 -4 22 0 28 2 40 4 28 2 -13 2 -35 0
-50z m1310 -76 c-2 -23 -3 -1 -3 48 0 50 1 68 3 42 2 -26 2 -67 0 -90z m-1306
20 c-10 -9 -11 -8 -5 6 3 10 9 15 12 12 3 -3 0 -11 -7 -18z m-1154 -79 c-3 -7
-5 -2 -5 12 0 14 2 19 5 13 2 -7 2 -19 0 -25z m-20 -10 c-3 -7 -5 -2 -5 12 0
14 2 19 5 13 2 -7 2 -19 0 -25z m-220 -70 c-3 -8 -6 -5 -6 6 -1 11 2 17 5 13
3 -3 4 -12 1 -19z m244 -24 c-5 -22 -9 -30 -10 -17 -1 12 -4 30 -7 40 -5 15
-4 15 5 3 9 -13 11 -12 11 4 0 11 2 17 5 14 3 -3 1 -23 -4 -44z m2446 24 c-3
-8 -6 -5 -6 6 -1 11 2 17 5 13 3 -3 4 -12 1 -19z m-2428 -89 c5 18 9 11 23
-38 9 -33 12 -59 8 -56 -5 3 -11 -1 -14 -7 -3 -7 -3 -2 0 12 3 14 1 37 -5 50
-8 22 -10 22 -11 5 l-1 -20 -9 20 c-5 11 -8 29 -8 40 1 15 2 13 6 -5 l5 -25 6
24z m-214 -116 c7 -24 10 -41 5 -38 -8 5 -31 87 -29 107 1 7 4 4 6 -7 3 -11
11 -39 18 -62z m2605 18 c-7 -28 -15 -53 -19 -56 -4 -2 -1 23 8 55 19 71 28
72 11 1z m-2308 -121 c2 7 9 2 15 -13 10 -21 9 -25 -4 -23 -15 2 -42 41 -42
61 0 6 6 -1 13 -14 8 -15 15 -19 18 -11z m-218 -97 c9 -18 14 -33 12 -33 -6 0
-36 55 -36 66 0 11 5 3 24 -33z m2441 -2 c-21 -43 -29 -39 -8 4 9 19 18 33 21
31 2 -2 -4 -18 -13 -35z m-2145 -34 c5 1 14 -5 22 -15 12 -16 11 -16 -6 -2
-18 14 -19 13 -13 -2 11 -29 1 -21 -27 25 -20 31 -22 36 -5 17 12 -14 25 -24
29 -23z m125 -137 c33 -33 57 -60 54 -60 -2 0 -31 27 -64 60 -33 33 -57 60
-54 60 2 0 31 -27 64 -60z m0 -30 c33 -33 57 -60 54 -60 -2 0 -31 27 -64 60
-33 33 -57 60 -54 60 2 0 31 -27 64 -60z m-275 -32 c19 -24 26 -37 17 -29 -19
15 -61 71 -54 71 2 0 19 -19 37 -42z m2161 14 c-11 -16 -28 -35 -38 -43 -9 -8
-2 5 17 29 38 48 52 57 21 14z m-1926 -256 c11 -11 -2 -1 -30 21 -27 23 -79
72 -115 110 -53 55 -48 51 30 -22 52 -49 104 -98 115 -109z m146 177 c13 -16
12 -17 -3 -4 -17 13 -22 21 -14 21 2 0 10 -8 17 -17z m1669 -49 c-36 -36 -87
-84 -115 -107 -27 -23 0 7 60 65 123 119 155 144 55 42z m-1530 -20 c0 -2 -9
0 -20 6 -11 6 -20 13 -20 16 0 2 9 0 20 -6 11 -6 20 -13 20 -16z m30 -40 c0
-2 -13 2 -30 11 -16 9 -30 18 -30 21 0 2 14 -2 30 -11 17 -9 30 -18 30 -21z
m168 -44 c4 0 0 -5 -8 -10 -13 -8 -13 -10 2 -10 9 0 19 -4 23 -9 3 -6 -15 -3
-41 6 -28 9 -41 18 -34 23 8 5 1 11 -19 18 -17 6 -31 13 -31 16 0 3 23 -3 50
-14 28 -11 54 -20 58 -20z m-398 -86 c0 -3 -13 4 -30 16 -16 12 -30 24 -30 26
0 3 14 -4 30 -16 17 -12 30 -24 30 -26z m1560 42 c0 -3 -15 -14 -32 -26 l-33
-22 30 26 c31 27 35 29 35 22z m-932 -13 c-10 -2 -28 -2 -40 0 -13 2 -5 4 17
4 22 1 32 -1 23 -4z m131 -7 c-2 -2 -40 -6 -84 -8 -45 -3 -67 -2 -50 2 30 8
142 13 134 6z m-21 -23 c-16 -2 -40 -2 -55 0 -16 2 -3 4 27 4 30 0 43 -2 28
-4z m-598 -78 c0 -3 -18 4 -40 15 -22 11 -40 23 -40 25 0 3 18 -4 40 -15 22
-11 40 -23 40 -25z m1300 40 c0 -2 -18 -14 -40 -25 -22 -11 -40 -18 -40 -15 0
2 17 13 38 24 42 23 42 23 42 16z m-1138 -113 c-9 -3 -82 26 -82 33 0 2 20 -4
45 -13 26 -9 42 -18 37 -20z m973 29 c-6 -5 -21 -11 -35 -15 -21 -5 -20 -3 5
9 35 17 42 18 30 6z m-644 -92 c112 -11 317 -2 376 17 16 5 16 4 2 -5 -9 -6
-71 -16 -138 -22 -128 -12 -346 0 -380 22 -14 9 -14 10 2 5 10 -3 72 -11 138
-17z"/>
<path d="M1194 2788 l-19 -23 23 19 c21 18 27 26 19 26 -2 0 -12 -10 -23 -22z"/>
<path d="M1002 2525 c-17 -37 -14 -45 4 -12 9 16 14 31 11 33 -2 2 -9 -7 -15
-21z"/>
<path d="M912 2280 c0 -14 2 -19 5 -12 2 6 2 18 0 25 -3 6 -5 1 -5 -13z"/>
<path d="M1608 953 c7 -3 16 -2 19 1 4 3 -2 6 -13 5 -11 0 -14 -3 -6 -6z"/>
</g>
</svg>
